<svg id="card-v2" xmlns="http://www.w3.org/2000/svg" width="1200" height="400" viewBox="0 0 1200 400">
	<style>
		#background {
			visibility: hidden;
			transform: scaleY(0);
			transform-origin: center;
			fill: #fff;
			animation: background 1s cubic-bezier(0.25, 1, 0.5, 1) 0s 1 forwards;
		}

		@keyframes background {
			0% {
				transform: scaleY(0);
			}

			9.99% {
				transform: scaleY(0);
			}

			10% {
				transform: scaleY(1);
			}

			30% {
				transform: scaleY(1);
			}

			30.01% {
				transform: scaleY(0);
			}

			40% {
				transform: scaleY(0);
			}

			100% {
				visibility: visible;
				transform: scaleY(1);
			}
		}

		#cursor {
			opacity: 0;
			animation: cursor 1s linear 0.8s infinite forwards;
		}

		@keyframes cursor {
			0% {
				opacity: 0;
			}

			40% {
				opacity: 0;
			}

			50% {
				opacity: 1;
			}

			99.99% {
				opacity: 1;
			}

			100% {
				opacity: 0;
			}
		}

		#blobs {
			opacity: 0;
			animation: show 1s ease-out 1.3s 1 forwards;
		}

		#blobs > path {
			--scale: 3;
			fill: transparent;
			stroke: #353535;
			stroke-width: 0.3px;
			transform: scale(var(--scale));
			animation: blob-rotate 10s linear 0s infinite forwards;
				
		}

		#blobs > path.speed-2 {
			animation-duration: 15s;
		}

		#blobs > path.speed-3 {
			animation-duration: 20s;
		}

		#blobs > path.speed-4 {
			animation-duration: 25s;
		}

		#blobs > path.speed-5 {
			animation-duration: 30s;
		}

		#blobs > path.rev {
			animation-direction: reverse;
		}

		@keyframes blob-rotate {
			0% {
				transform: scale(var(--scale)) rotate(0deg);
			}

			100% {
				transform: scale(var(--scale)) rotate(360deg);
			}
		}

		@keyframes show {
			0% {
				opacity: 0;
			}

			100% {
				opacity: 1;
			}
		}

		@keyframes blink-out {
			0%,
			19.99%,
			40%,
			59.99%,
			90% {
				opacity: 0;
			}

			20%,
			39.99%  {
				opacity: 0.3;
			}

			60%,
			89.99% {
				opacity: 0.8;
			}

			100% {
				opacity: 0;
			}
		}

		#nameUnderlay {
			opacity: 1;
			animation: blink-out 0.4s linear 1.2s 1 forwards;
		}

		#nameBlobs {
			opacity: 0;
			animation: show 0.1s linear 1.6s 1 forwards;
		}

		#nameBlobs > .blob-1 {
			transform: translate(800px, 300px);
		}

		#nameBlobs > .blob-1 > path {
			--scale: 2;
			fill: #FF0066;
			transform: scale(var(--scale));
			animation: blob-rotate 10s linear 0s infinite forwards;
		}

		#nameBlobs > .blob-2 {
			transform: translate(600px, -100px);
		}

		#nameBlobs > .blob-2 > path {
			--scale: 4;
			fill: #0077ff;
			transform: scale(var(--scale));
			animation: blob-rotate 13s linear 0s infinite forwards;
		}

		#nameBlobs > .blob-3 {
			transform: translate(520px, 560px);
		}

		#nameBlobs > .blob-3 > path {
			--scale: 5;
			fill: #ff8800;
			transform: scale(var(--scale));
			animation: blob-rotate 18s linear 0s infinite backwards;
		}

		#nameBlobs > .blob-4 {
			transform: translate(220px, 160px);
		}

		#nameBlobs > .blob-4 > path {
			--scale: 4;
			fill: #6200ff;
			transform: scale(var(--scale));
			animation: blob-rotate 14s linear 0s infinite;
		}

		.fade-up {
			--amount: 60px;
			opacity: 0;
			transform: translateY(var(--amount));
			animation: fade-up 0.4s cubic-bezier(0.25, 1, 0.5, 1) 0.6s 1 forwards;
		}

		.fade-down {
			--amount: -60px;
			opacity: 0;
			transform: translateY(var(--amount));
			animation: fade-down 0.4s cubic-bezier(0.25, 1, 0.5, 1) 0.6s 1 forwards;
		}

		.fade-right {
			--amount: 60px;
			opacity: 0;
			transform: translateX(var(--amount));
			animation: fade-right 0.4s cubic-bezier(0.25, 1, 0.5, 1) 0.6s 1 forwards;
		}

		.small {
			--amount: 20px;
		}

		.fade-down.small {
			--amount: -20px;
		}

		.fade-scale {
			transform: scaleX(0);
			transform-origin: 54px 0;
			animation: fade-scale 0.4s cubic-bezier(0.25, 1, 0.5, 1) 0.6s 1 forwards;
		}

		.d-05 {
			animation-delay: 0.65s;
		}

		.d-1 {
			animation-delay: 0.7s;
		}

		.d-15 {
			animation-delay: 0.75s;
		}

		.d-2 {
			animation-delay: 0.8s;
		}

		.d-25 {
			animation-delay: 0.85s;
		}

		.d-3 {
			animation-delay: 0.9s;
		}

		.d-35 {
			animation-delay: 0.95s;
		}

		.d-4 {
			animation-delay: 1s;
		}

		.d-45 {
			animation-delay: 1.05s;
		}

		.d-5 {
			animation-delay: 1.1s;
		}

		.d-55 {
			animation-delay: 1.15s;
		}

		.d-6 {
			animation-delay: 1.2s;
		}

		.d-6 {
			animation-delay: 1.25s;
		}

		.d-7 {
			animation-delay: 1.3s;
		}

		@keyframes fade-up {
			0% {
				opacity: 0;
				transform: translateY(var(--amount));
			}

			10% {
				transform: translateY(var(--amount));
			}

			30% {
				opacity: 1;
			}

			100% {
				opacity: 1;
				transform: translateY(0);
			}
		}

		@keyframes fade-down {
			0% {
				opacity: 0;
				transform: translateY(var(--amount));
			}

			10% {
				transform: translateY(var(--amount));
			}

			30% {
				opacity: 1;
			}

			100% {
				opacity: 1;
				transform: translateY(0);
			}
		}

		@keyframes fade-right {
			0% {
				opacity: 0;
				transform: translateX(var(--amount));
			}

			10% {
				transform: translateX(var(--amount));
			}

			30% {
				opacity: 1;
			}

			100% {
				opacity: 1;
				transform: translateX(0);
			}
		}

		@keyframes fade-scale {
			0% {
				transform: scaleX(0);
			}

			100% {
				transform: scaleX(1);
			}
		}
	</style>

	<rect id="background" width="1200" height="400" fill="transparent" />

	<g id="blobs" transform="translate(1300 100)">
		<path class="speed-0" d="M45.2,-35.1C56.6,-21.8,62.3,-3.2,60.4,17.3C58.6,37.8,49.2,60.2,32.8,68.1C16.4,76,-7,69.4,-29.8,59.4C-52.5,49.3,-74.8,35.7,-80.3,16.8C-85.9,-2.1,-74.7,-26.4,-58.6,-40.8C-42.4,-55.2,-21.2,-59.7,-2.1,-58C16.9,-56.3,33.9,-48.4,45.2,-35.1Z" />
		<path class="speed-3" d="M64.2,-47.9C78.1,-33.9,80.6,-7.4,74.2,15.5C67.8,38.5,52.6,58,32.8,67C13.1,76.1,-11.1,74.7,-33.5,65.5C-56,56.3,-76.7,39.2,-80.5,19.3C-84.3,-0.6,-71.2,-23.5,-55,-38C-38.7,-52.6,-19.4,-58.8,2.9,-61.1C25.2,-63.4,50.4,-61.8,64.2,-47.9Z" />
		<path class="speed-1 rev" d="M62.6,-50C78.1,-30.5,85.5,-4.7,80.5,19C75.6,42.6,58.4,64,35.9,75.1C13.3,86.2,-14.5,87,-30.1,74.7C-45.6,62.5,-49,37.2,-53.7,13.3C-58.4,-10.7,-64.3,-33.3,-55.5,-51.3C-46.8,-69.2,-23.4,-82.5,0.1,-82.6C23.6,-82.6,47.1,-69.5,62.6,-50Z" />
		<path class="speed-2" d="M53.5,-43.7C62.2,-31.6,57.4,-9.8,52.8,12.8C48.3,35.5,44,58.9,29.5,68.7C15.1,78.5,-9.5,74.6,-28.7,63.8C-47.8,52.9,-61.6,35,-63.9,16.9C-66.2,-1.3,-57.2,-19.8,-44.6,-32.8C-32,-45.7,-16,-53.1,3.2,-55.6C22.4,-58.2,44.7,-55.8,53.5,-43.7Z" />
		<path class="speed-4 rev" d="M51.3,-42.8C64,-24.9,70.3,-3.7,66.1,15.3C62,34.3,47.3,51,30.6,56.2C13.9,61.4,-4.8,55.1,-25.3,47.3C-45.8,39.4,-68.1,30,-75.9,12.5C-83.7,-5,-77.1,-30.6,-62,-49C-46.9,-67.4,-23.5,-78.7,-2.1,-77C19.2,-75.3,38.5,-60.7,51.3,-42.8Z" />
		<path class="speed-5" d="M51.7,-72.3C64.9,-61.5,72.1,-43.6,74.1,-26.7C76,-9.7,72.7,6.4,66.3,20.1C59.9,33.8,50.4,45,38.8,54.3C27.2,63.6,13.6,71.1,-0.1,71.3C-13.9,71.4,-27.7,64.3,-42.1,55.9C-56.6,47.5,-71.6,37.8,-78.5,23.8C-85.4,9.8,-84.2,-8.6,-77.3,-23.7C-70.5,-38.8,-57.9,-50.7,-44.1,-61.2C-30.3,-71.8,-15.1,-81.1,2,-83.9C19.2,-86.7,38.5,-83.1,51.7,-72.3Z" />
		<path class="speed-3 rev" d="M46.5,-66.6C58.4,-55.4,64.9,-39.3,71.9,-22.3C78.9,-5.3,86.4,12.6,83.1,28.2C79.7,43.8,65.4,57.1,49.8,64.2C34.1,71.2,17,72,0.6,71.2C-15.9,70.5,-31.9,68.2,-42.4,59.4C-52.8,50.7,-57.8,35.5,-63.1,20.3C-68.4,5,-74,-10.5,-72.8,-26.6C-71.6,-42.7,-63.5,-59.4,-50.2,-70.2C-36.9,-80.9,-18.5,-85.6,-0.6,-84.8C17.3,-84,34.6,-77.8,46.5,-66.6Z" />
	</g>

	<g class="fade-up d-3">
		<mask id="nameMask">
			<rect x="0" y="0" width="1200" height="400" fill="black" />
			
			<path id="name" fill="white"
				d="M78.474-22.509a20.088,20.088,0,0,1-3.629,12.054,23.323,23.323,0,0,1-9.778,7.749A33.228,33.228,0,0,1,51.537,0H9.84V-87.33H54.858A17.621,17.621,0,0,1,65.5-84.071a21.411,21.411,0,0,1,6.888,8.364,24.735,24.735,0,0,1,2.4,10.639,23.436,23.436,0,0,1-3.259,11.993,19.9,19.9,0,0,1-9.286,8.3,22.188,22.188,0,0,1,11.869,8.057A23.057,23.057,0,0,1,78.474-22.509ZM64.329-25.092a14.534,14.534,0,0,0-1.538-6.7,13.554,13.554,0,0,0-4.182-4.92A10.34,10.34,0,0,0,52.4-38.622H23.616v26.691H51.537a12.275,12.275,0,0,0,6.581-1.783,12.789,12.789,0,0,0,4.551-4.8A13.411,13.411,0,0,0,64.329-25.092ZM23.616-75.4v25.707H48.954a11.52,11.52,0,0,0,6.15-1.66A12.1,12.1,0,0,0,59.409-55.9a13.366,13.366,0,0,0,1.6-6.58,14.546,14.546,0,0,0-1.476-6.7,11.682,11.682,0,0,0-4-4.551,10.379,10.379,0,0,0-5.843-1.66ZM127.182,1.23A33.988,33.988,0,0,1,113.59-1.4a32.183,32.183,0,0,1-10.516-7.2,32.525,32.525,0,0,1-6.826-10.5,33.335,33.335,0,0,1-2.4-12.636,33.2,33.2,0,0,1,4.182-16.483,32.428,32.428,0,0,1,11.685-12.042,33.191,33.191,0,0,1,17.589-4.562,32.2,32.2,0,0,1,17.4,4.567,32.074,32.074,0,0,1,11.378,12A32.764,32.764,0,0,1,160.146-32.3q0,1.463-.123,2.741t-.246,2.131H108.24a19.754,19.754,0,0,0,3.136,9.773,19.834,19.834,0,0,0,7.073,6.556,18.845,18.845,0,0,0,9.225,2.368,20.8,20.8,0,0,0,10.271-2.706,13.97,13.97,0,0,0,6.581-7.134l11.562,3.321a24.69,24.69,0,0,1-6.335,8.426,31.613,31.613,0,0,1-10.025,5.9A35.678,35.678,0,0,1,127.182,1.23ZM107.871-36.408h38.868A19.353,19.353,0,0,0,143.6-46a19.94,19.94,0,0,0-7.011-6.511,19.085,19.085,0,0,0-9.41-2.351,18.841,18.841,0,0,0-9.287,2.351A19.422,19.422,0,0,0,110.946-46,19.717,19.717,0,0,0,107.871-36.408ZM178.227-89.79h13.53v71.44q0,4.935,1.476,6.292a5.245,5.245,0,0,0,3.69,1.357,20.667,20.667,0,0,0,4.613-.492,19.175,19.175,0,0,0,3.751-1.23l1.968,10.7A39.859,39.859,0,0,1,200.244.369a35.378,35.378,0,0,1-7.257.861q-6.888,0-10.824-3.885t-3.936-10.792ZM222.138,0l-.123-64.329,13.407.123L235.545,0Zm0-75.153-.123-14.637h13.407l.123,14.883ZM303.441,0,282.777-29.472,272.2-19.446V0h-13.53V-89.79H272.2v56.77l29.766-30.817h14.514L291.51-37.056,317.832,0Zm87.207,0h-13.53V-35.624q0-8.633-3.2-12.888a10.583,10.583,0,0,0-8.979-4.255,16.281,16.281,0,0,0-7.38,1.934,22.769,22.769,0,0,0-6.765,5.26,20.662,20.662,0,0,0-4.3,7.679V0h-13.53V-89.79h13.53v38.858a27.121,27.121,0,0,1,10.086-10.173,26.962,26.962,0,0,1,13.776-3.716,21.274,21.274,0,0,1,9.963,2.072,16.03,16.03,0,0,1,6.212,5.666,23.98,23.98,0,0,1,3.2,8.285,51.406,51.406,0,0,1,.922,9.93Zm22.017-24.773V-63.837h13.53v36.32q0,8.531,3.137,12.858t9.164,4.327a18.5,18.5,0,0,0,7.441-1.577,20.859,20.859,0,0,0,6.642-4.671,23.879,23.879,0,0,0,4.858-7.461v-39.8h13.53v48.625a4.966,4.966,0,0,0,.861,3.291,3.946,3.946,0,0,0,2.829,1.1V0q-2.091.369-3.444.492T468.63.615A9.386,9.386,0,0,1,462.48-1.4a7.6,7.6,0,0,1-2.829-5.186L459.4-12.93A28.619,28.619,0,0,1,448.212-2.372a32.151,32.151,0,0,1-15.129,3.6Q423,1.23,417.831-5.362T412.665-24.773ZM552.762,0h-13.53V-35.624q0-8.875-2.891-13.009t-8.548-4.134a17.333,17.333,0,0,0-7.811,1.934,24.055,24.055,0,0,0-6.949,5.26,19.845,19.845,0,0,0-4.428,7.679V0h-13.53V-63.837h12.3v12.905a25.254,25.254,0,0,1,6.458-7.371,30.56,30.56,0,0,1,9.04-4.812,33.176,33.176,0,0,1,10.7-1.706,19.566,19.566,0,0,1,9.533,2.072,15.456,15.456,0,0,1,5.9,5.666,23.725,23.725,0,0,1,2.952,8.285,59.1,59.1,0,0,1,.8,9.93Z"
				transform="translate(318.699 244.28)" />
		</mask>

		<path id="nameUnderlay" fill="black"
			d="M78.474-22.509a20.088,20.088,0,0,1-3.629,12.054,23.323,23.323,0,0,1-9.778,7.749A33.228,33.228,0,0,1,51.537,0H9.84V-87.33H54.858A17.621,17.621,0,0,1,65.5-84.071a21.411,21.411,0,0,1,6.888,8.364,24.735,24.735,0,0,1,2.4,10.639,23.436,23.436,0,0,1-3.259,11.993,19.9,19.9,0,0,1-9.286,8.3,22.188,22.188,0,0,1,11.869,8.057A23.057,23.057,0,0,1,78.474-22.509ZM64.329-25.092a14.534,14.534,0,0,0-1.538-6.7,13.554,13.554,0,0,0-4.182-4.92A10.34,10.34,0,0,0,52.4-38.622H23.616v26.691H51.537a12.275,12.275,0,0,0,6.581-1.783,12.789,12.789,0,0,0,4.551-4.8A13.411,13.411,0,0,0,64.329-25.092ZM23.616-75.4v25.707H48.954a11.52,11.52,0,0,0,6.15-1.66A12.1,12.1,0,0,0,59.409-55.9a13.366,13.366,0,0,0,1.6-6.58,14.546,14.546,0,0,0-1.476-6.7,11.682,11.682,0,0,0-4-4.551,10.379,10.379,0,0,0-5.843-1.66ZM127.182,1.23A33.988,33.988,0,0,1,113.59-1.4a32.183,32.183,0,0,1-10.516-7.2,32.525,32.525,0,0,1-6.826-10.5,33.335,33.335,0,0,1-2.4-12.636,33.2,33.2,0,0,1,4.182-16.483,32.428,32.428,0,0,1,11.685-12.042,33.191,33.191,0,0,1,17.589-4.562,32.2,32.2,0,0,1,17.4,4.567,32.074,32.074,0,0,1,11.378,12A32.764,32.764,0,0,1,160.146-32.3q0,1.463-.123,2.741t-.246,2.131H108.24a19.754,19.754,0,0,0,3.136,9.773,19.834,19.834,0,0,0,7.073,6.556,18.845,18.845,0,0,0,9.225,2.368,20.8,20.8,0,0,0,10.271-2.706,13.97,13.97,0,0,0,6.581-7.134l11.562,3.321a24.69,24.69,0,0,1-6.335,8.426,31.613,31.613,0,0,1-10.025,5.9A35.678,35.678,0,0,1,127.182,1.23ZM107.871-36.408h38.868A19.353,19.353,0,0,0,143.6-46a19.94,19.94,0,0,0-7.011-6.511,19.085,19.085,0,0,0-9.41-2.351,18.841,18.841,0,0,0-9.287,2.351A19.422,19.422,0,0,0,110.946-46,19.717,19.717,0,0,0,107.871-36.408ZM178.227-89.79h13.53v71.44q0,4.935,1.476,6.292a5.245,5.245,0,0,0,3.69,1.357,20.667,20.667,0,0,0,4.613-.492,19.175,19.175,0,0,0,3.751-1.23l1.968,10.7A39.859,39.859,0,0,1,200.244.369a35.378,35.378,0,0,1-7.257.861q-6.888,0-10.824-3.885t-3.936-10.792ZM222.138,0l-.123-64.329,13.407.123L235.545,0Zm0-75.153-.123-14.637h13.407l.123,14.883ZM303.441,0,282.777-29.472,272.2-19.446V0h-13.53V-89.79H272.2v56.77l29.766-30.817h14.514L291.51-37.056,317.832,0Zm87.207,0h-13.53V-35.624q0-8.633-3.2-12.888a10.583,10.583,0,0,0-8.979-4.255,16.281,16.281,0,0,0-7.38,1.934,22.769,22.769,0,0,0-6.765,5.26,20.662,20.662,0,0,0-4.3,7.679V0h-13.53V-89.79h13.53v38.858a27.121,27.121,0,0,1,10.086-10.173,26.962,26.962,0,0,1,13.776-3.716,21.274,21.274,0,0,1,9.963,2.072,16.03,16.03,0,0,1,6.212,5.666,23.98,23.98,0,0,1,3.2,8.285,51.406,51.406,0,0,1,.922,9.93Zm22.017-24.773V-63.837h13.53v36.32q0,8.531,3.137,12.858t9.164,4.327a18.5,18.5,0,0,0,7.441-1.577,20.859,20.859,0,0,0,6.642-4.671,23.879,23.879,0,0,0,4.858-7.461v-39.8h13.53v48.625a4.966,4.966,0,0,0,.861,3.291,3.946,3.946,0,0,0,2.829,1.1V0q-2.091.369-3.444.492T468.63.615A9.386,9.386,0,0,1,462.48-1.4a7.6,7.6,0,0,1-2.829-5.186L459.4-12.93A28.619,28.619,0,0,1,448.212-2.372a32.151,32.151,0,0,1-15.129,3.6Q423,1.23,417.831-5.362T412.665-24.773ZM552.762,0h-13.53V-35.624q0-8.875-2.891-13.009t-8.548-4.134a17.333,17.333,0,0,0-7.811,1.934,24.055,24.055,0,0,0-6.949,5.26,19.845,19.845,0,0,0-4.428,7.679V0h-13.53V-63.837h12.3v12.905a25.254,25.254,0,0,1,6.458-7.371,30.56,30.56,0,0,1,9.04-4.812,33.176,33.176,0,0,1,10.7-1.706,19.566,19.566,0,0,1,9.533,2.072,15.456,15.456,0,0,1,5.9,5.666,23.725,23.725,0,0,1,2.952,8.285,59.1,59.1,0,0,1,.8,9.93Z"
			transform="translate(318.699 244.28)" />

		<g id="nameBlobs" mask="url(#nameMask)">
			<rect x="0" y="0" width="1200" height="400" fill="#31343a" />
			
			<g class="blob-1">
				<path d="M53.2,-73.5C68,-62.5,78.4,-45.7,83.7,-27.6C89,-9.6,89.1,9.7,83.3,26.9C77.5,44.1,65.8,59.3,50.9,68.6C36.1,77.9,18,81.4,1.1,79.8C-15.8,78.3,-31.6,71.7,-46,62.3C-60.4,52.8,-73.5,40.5,-79.6,25C-85.8,9.6,-85.1,-8.9,-77.8,-23.4C-70.5,-38,-56.7,-48.5,-42.7,-59.8C-28.6,-71.1,-14.3,-83.2,2.4,-86.5C19.2,-89.9,38.4,-84.6,53.2,-73.5Z" />
			</g>

			<g class="blob-2">
				<path d="M54.2,-72.6C70,-63.1,82.5,-47,85,-29.8C87.6,-12.7,80.2,5.5,71.1,19.8C61.9,34.2,51,44.6,38.8,52.6C26.7,60.5,13.4,65.9,0.1,65.7C-13.1,65.5,-26.1,59.7,-38.5,51.9C-50.8,44,-62.4,34,-69.5,20.6C-76.7,7.1,-79.4,-9.8,-75.9,-25.9C-72.4,-42,-62.6,-57.4,-48.9,-67.6C-35.2,-77.8,-17.6,-82.9,0.8,-84C19.2,-85,38.4,-82.1,54.2,-72.6Z" />
			</g>

			<g class="blob-3">
				<path d="M45.5,-64.7C58.1,-53.6,66.6,-39,73.8,-22.6C81,-6.2,86.9,11.9,80.6,24.6C74.3,37.2,55.8,44.3,40.3,48.4C24.9,52.6,12.4,53.8,-3,57.9C-18.5,62,-36.9,69.1,-50.2,64.3C-63.5,59.5,-71.7,42.7,-71.7,27C-71.7,11.3,-63.6,-3.4,-59,-19.7C-54.4,-36,-53.4,-54,-44.1,-66.2C-34.9,-78.4,-17.4,-84.8,-0.5,-84.2C16.5,-83.5,33,-75.8,45.5,-64.7Z" />
			</g>

			<g class="blob-4">
				<path d="M51.2,-66.4C64.9,-60.6,73.5,-43.6,79.3,-25.7C85.2,-7.9,88.3,10.9,83.9,28.1C79.5,45.3,67.5,60.8,52.2,70.4C37,80.1,18.5,83.8,4.1,78.2C-10.4,72.6,-20.7,57.7,-31.2,46.5C-41.6,35.3,-52.1,27.8,-60.6,16.2C-69.2,4.6,-75.8,-11.1,-71.7,-23.2C-67.7,-35.4,-53,-44,-39.3,-49.8C-25.5,-55.6,-12.8,-58.4,3,-62.6C18.8,-66.7,37.6,-72.2,51.2,-66.4Z" />
			</g>
		</g>
	</g>

	<g class="fade-right">
		<path id="README.md"
			d="M2.38,0V-19.88h8.512a5.308,5.308,0,0,1,2.408.546,6.313,6.313,0,0,1,1.9,1.456,6.8,6.8,0,0,1,1.26,2.044,6.238,6.238,0,0,1,.448,2.31,6.65,6.65,0,0,1-.518,2.6,5.977,5.977,0,0,1-1.456,2.1,5.132,5.132,0,0,1-2.2,1.2L17.556,0H14.7L10.164-7.14H4.9V0ZM4.9-9.38h6.02a2.938,2.938,0,0,0,1.806-.574,3.854,3.854,0,0,0,1.2-1.526,4.869,4.869,0,0,0,.434-2.044,4.279,4.279,0,0,0-.5-2.058,4.192,4.192,0,0,0-1.316-1.5,3.088,3.088,0,0,0-1.792-.56H4.9ZM34.832-2.24V0h-13.5V-19.88H34.58v2.24H23.856v6.44H33.18v2.1H23.856v6.86ZM44.884-19.88h2.128L55.132,0H52.444l-2.23-5.824H41.663L39.424,0H36.736Zm4.58,12.1-3.516-9.184L42.417-7.784ZM58.352,0V-19.88H65.24a9.938,9.938,0,0,1,5.334,1.33,8.322,8.322,0,0,1,3.206,3.584,11.561,11.561,0,0,1,1.064,5A11.172,11.172,0,0,1,73.668-4.7a8.416,8.416,0,0,1-3.332,3.472A10.1,10.1,0,0,1,65.24,0ZM72.3-9.968a9.148,9.148,0,0,0-.826-3.976,6.335,6.335,0,0,0-2.394-2.716,7.1,7.1,0,0,0-3.836-.98H60.872v15.4H65.24A6.93,6.93,0,0,0,69.1-3.262a6.5,6.5,0,0,0,2.38-2.772A9.238,9.238,0,0,0,72.3-9.968ZM96.152,0V-15.176L89.6-3.5H88.06L81.48-15.176V0H78.96V-19.88h2.66l7.2,12.908L96.04-19.88h2.632V0Zm21.336-2.24V0h-13.5V-19.88h13.244v2.24H106.512v6.44h9.324v2.1h-9.324v6.86ZM120.9,0V-3.136h2.072V0Zm28.448,0h-2.464V-8.1a6.021,6.021,0,0,0-.742-3.358,2.492,2.492,0,0,0-2.2-1.082,3.951,3.951,0,0,0-2.688,1.068,5.817,5.817,0,0,0-1.708,2.762V0h-2.464V-8.1a6.1,6.1,0,0,0-.728-3.372,2.467,2.467,0,0,0-2.184-1.068,4.034,4.034,0,0,0-2.674,1.038,5.58,5.58,0,0,0-1.722,2.753V0h-2.464V-14.532h2.24v3.139a6.606,6.606,0,0,1,2.324-2.487,6.037,6.037,0,0,1,3.22-.875,4.179,4.179,0,0,1,2.912.987,4.224,4.224,0,0,1,1.344,2.543,7.382,7.382,0,0,1,2.38-2.626,5.759,5.759,0,0,1,3.192-.9,4.427,4.427,0,0,1,2.114.458,3.521,3.521,0,0,1,1.358,1.278,5.874,5.874,0,0,1,.728,1.931,12.243,12.243,0,0,1,.224,2.417ZM152.8-7.224a8.307,8.307,0,0,1,.854-3.766A7.1,7.1,0,0,1,156-13.728a5.915,5.915,0,0,1,3.43-1.028,5.615,5.615,0,0,1,3.164.924,6.933,6.933,0,0,1,2.184,2.24V-20.44h2.464V-2.8a.989.989,0,0,0,.182.658.837.837,0,0,0,.6.238V0a7.385,7.385,0,0,1-1.092.112,1.819,1.819,0,0,1-1.274-.5,1.5,1.5,0,0,1-.546-1.12V-2.744a6.3,6.3,0,0,1-2.324,2.212,6.128,6.128,0,0,1-3.024.812,6.477,6.477,0,0,1-2.786-.6,6.781,6.781,0,0,1-2.212-1.654,7.8,7.8,0,0,1-1.456-2.4A7.872,7.872,0,0,1,152.8-7.224ZM164.78-5.09V-9.247a4.6,4.6,0,0,0-1.092-1.7,6.2,6.2,0,0,0-1.694-1.219,4.222,4.222,0,0,0-1.862-.457,4.225,4.225,0,0,0-1.974.457,4.818,4.818,0,0,0-1.512,1.219,5.538,5.538,0,0,0-.966,1.732,6.136,6.136,0,0,0-.336,2.023,5.6,5.6,0,0,0,.378,2.051,5.442,5.442,0,0,0,1.064,1.718,4.918,4.918,0,0,0,1.6,1.164,4.7,4.7,0,0,0,1.974.416,4.192,4.192,0,0,0,1.386-.249A5.7,5.7,0,0,0,163.1-2.79a4.657,4.657,0,0,0,1.092-1.039A3.175,3.175,0,0,0,164.78-5.09Z"
			transform="translate(57.62 66)" />
	</g>

	<g class="fade-right d-15">
		<path id="link"
			d="M3.069.11A2.433,2.433,0,0,1,2-.127a2.556,2.556,0,0,1-.841-.649,3.038,3.038,0,0,1-.545-.941,3.186,3.186,0,0,1-.192-1.1A3.376,3.376,0,0,1,.611-3.96a2.955,2.955,0,0,1,.55-.952A2.634,2.634,0,0,1,2-5.561,2.423,2.423,0,0,1,3.08-5.8a2.241,2.241,0,0,1,1.249.346,3.124,3.124,0,0,1,.9.886V-5.709h.858V-.056a2.331,2.331,0,0,1-.39,1.369,2.453,2.453,0,0,1-1.056.849,3.662,3.662,0,0,1-1.48.29,3.251,3.251,0,0,1-1.584-.341A3.012,3.012,0,0,1,.55,1.188l.561-.5A2.136,2.136,0,0,0,2,1.452a2.721,2.721,0,0,0,1.161.253,2.486,2.486,0,0,0,.974-.187A1.619,1.619,0,0,0,4.845.945a1.647,1.647,0,0,0,.27-.967V-1.034A2.31,2.31,0,0,1,4.24-.2,2.381,2.381,0,0,1,3.069.11Zm.3-.792a1.641,1.641,0,0,0,.594-.11,2.179,2.179,0,0,0,.528-.291A1.885,1.885,0,0,0,4.9-1.5a1.315,1.315,0,0,0,.22-.473v-1.65a2.13,2.13,0,0,0-.44-.7,2.14,2.14,0,0,0-.649-.473,1.741,1.741,0,0,0-.748-.171,1.629,1.629,0,0,0-.786.187,1.839,1.839,0,0,0-.589.5,2.417,2.417,0,0,0-.374.7,2.393,2.393,0,0,0-.132.781,2.129,2.129,0,0,0,.154.808,2.326,2.326,0,0,0,.418.677A1.859,1.859,0,0,0,2.6-.847,1.839,1.839,0,0,0,3.366-.682ZM8.547,0V-5.742h.968V0Zm0-6.82V-8.03h.968v1.21Zm6.4,6.567q-.121.055-.33.143a3.143,3.143,0,0,1-.484.154,2.491,2.491,0,0,1-.583.066A1.639,1.639,0,0,1,12.9-.016a1.039,1.039,0,0,1-.473-.4,1.213,1.213,0,0,1-.176-.677V-4.95h-.781v-.759h.781V-7.623h.968v1.914h1.287v.759H13.222v3.564a.606.606,0,0,0,.209.456.686.686,0,0,0,.44.149,1.381,1.381,0,0,0,.528-.1,3.317,3.317,0,0,0,.319-.143ZM21.736,0h-.968V-3.184a2.241,2.241,0,0,0-.313-1.308,1.037,1.037,0,0,0-.9-.436,1.633,1.633,0,0,0-.753.2,2.211,2.211,0,0,0-.666.527,2.086,2.086,0,0,0-.418.766V0h-.968V-8.03h.968v3.554a2.568,2.568,0,0,1,.93-.966A2.417,2.417,0,0,1,19.921-5.8a1.859,1.859,0,0,1,.863.18,1.43,1.43,0,0,1,.556.508,2.305,2.305,0,0,1,.3.759,4.459,4.459,0,0,1,.094.944ZM24.09-2.285V-5.709h.968v3.235a2.282,2.282,0,0,0,.308,1.311,1.045,1.045,0,0,0,.913.437,1.815,1.815,0,0,0,.764-.169,2.125,2.125,0,0,0,.665-.485,2.245,2.245,0,0,0,.462-.752V-5.709h.968V-1.1a.384.384,0,0,0,.072.257.33.33,0,0,0,.236.093V0q-.165.022-.259.028t-.181.005a.7.7,0,0,1-.473-.17.567.567,0,0,1-.209-.421L28.3-1.224A2.629,2.629,0,0,1,27.3-.24a2.8,2.8,0,0,1-1.381.35A1.607,1.607,0,0,1,24.552-.5,2.922,2.922,0,0,1,24.09-2.285ZM34.606.11a2.328,2.328,0,0,1-1.221-.33,2.5,2.5,0,0,1-.869-.858V0h-.858V-8.03h.968v3.476a2.988,2.988,0,0,1,.891-.9A2.22,2.22,0,0,1,34.749-5.8a2.28,2.28,0,0,1,1.067.246,2.5,2.5,0,0,1,.808.666,3.142,3.142,0,0,1,.517.95,3.394,3.394,0,0,1,.181,1.108,3.123,3.123,0,0,1-.2,1.13,2.946,2.946,0,0,1-.578.939,2.728,2.728,0,0,1-.863.639A2.5,2.5,0,0,1,34.606.11Zm-.242-.836A1.807,1.807,0,0,0,35.156-.9a1.992,1.992,0,0,0,.627-.468,2.108,2.108,0,0,0,.407-.675,2.214,2.214,0,0,0,.143-.784A2.373,2.373,0,0,0,36.1-3.872a2.025,2.025,0,0,0-.66-.789,1.662,1.662,0,0,0-.985-.3,1.606,1.606,0,0,0-.759.185,2.223,2.223,0,0,0-.621.484,2.86,2.86,0,0,0-.446.659v1.644a1.2,1.2,0,0,0,.231.5,1.789,1.789,0,0,0,.429.4,2.361,2.361,0,0,0,.534.267A1.647,1.647,0,0,0,34.364-.726ZM39.336,0V-1.232h.814V0Zm5.522.11a2.9,2.9,0,0,1-1.182-.235,2.807,2.807,0,0,1-.924-.65,3,3,0,0,1-.6-.95,3.022,3.022,0,0,1-.215-1.135,3.03,3.03,0,0,1,.363-1.474A2.778,2.778,0,0,1,43.318-5.4a2.9,2.9,0,0,1,1.529-.4,2.82,2.82,0,0,1,1.479.379,2.371,2.371,0,0,1,.94,1.018l-.946.3a1.574,1.574,0,0,0-.616-.633,1.747,1.747,0,0,0-.88-.226,1.777,1.777,0,0,0-.963.272,1.939,1.939,0,0,0-.687.746,2.263,2.263,0,0,0-.253,1.083,2.264,2.264,0,0,0,.258,1.083,2.046,2.046,0,0,0,.693.768,1.726,1.726,0,0,0,.962.283,1.8,1.8,0,0,0,.655-.121,1.864,1.864,0,0,0,.55-.325,1.08,1.08,0,0,0,.324-.445l.946.286a2.094,2.094,0,0,1-.534.743,2.655,2.655,0,0,1-.847.512A2.982,2.982,0,0,1,44.858.11Zm6.908,0a2.866,2.866,0,0,1-1.177-.235,2.8,2.8,0,0,1-.913-.644,2.925,2.925,0,0,1-.594-.939,3.021,3.021,0,0,1-.209-1.119,3.123,3.123,0,0,1,.209-1.146,2.91,2.91,0,0,1,.594-.944,2.786,2.786,0,0,1,.918-.644A2.876,2.876,0,0,1,51.766-5.8a2.866,2.866,0,0,1,1.177.235,2.863,2.863,0,0,1,.918.644,2.864,2.864,0,0,1,.6.944,3.123,3.123,0,0,1,.209,1.146,3.021,3.021,0,0,1-.209,1.119,2.925,2.925,0,0,1-.594.939,2.786,2.786,0,0,1-.918.644A2.9,2.9,0,0,1,51.766.11Zm-1.9-2.937a2.21,2.21,0,0,0,.258,1.067A2.029,2.029,0,0,0,50.809-1a1.724,1.724,0,0,0,.957.278,1.726,1.726,0,0,0,.962-.283,2.046,2.046,0,0,0,.693-.768,2.242,2.242,0,0,0,.258-1.072,2.21,2.21,0,0,0-.258-1.067,2.057,2.057,0,0,0-.693-.762,1.726,1.726,0,0,0-.962-.283,1.7,1.7,0,0,0-.963.288,2.056,2.056,0,0,0-.687.768A2.272,2.272,0,0,0,49.863-2.827ZM65.406,0h-.968V-3.184A2.365,2.365,0,0,0,64.146-4.5a.979.979,0,0,0-.864-.425,1.552,1.552,0,0,0-1.056.42,2.285,2.285,0,0,0-.671,1.085V0h-.968V-3.184A2.4,2.4,0,0,0,60.3-4.508a.969.969,0,0,0-.858-.42,1.585,1.585,0,0,0-1.051.408,2.192,2.192,0,0,0-.676,1.082V0h-.968V-5.709h.88v1.233a2.6,2.6,0,0,1,.913-.977A2.372,2.372,0,0,1,59.807-5.8a1.642,1.642,0,0,1,1.144.388,1.66,1.66,0,0,1,.528,1,2.9,2.9,0,0,1,.935-1.032A2.262,2.262,0,0,1,63.668-5.8a1.739,1.739,0,0,1,.83.18,1.383,1.383,0,0,1,.534.5,2.308,2.308,0,0,1,.286.759,4.81,4.81,0,0,1,.088.95Zm8.283-7.81L68.409,0H67.331L72.6-7.81Zm8.14,5.8a1.827,1.827,0,0,1-.308,1.056,2.081,2.081,0,0,1-.83.7A2.6,2.6,0,0,1,79.541,0H75.834V-7.81h3.883a1.576,1.576,0,0,1,.951.292,1.915,1.915,0,0,1,.616.748,2.212,2.212,0,0,1,.215.951,2.1,2.1,0,0,1-.291,1.073A1.78,1.78,0,0,1,80.377-4a1.962,1.962,0,0,1,1.062.732A2.074,2.074,0,0,1,81.829-2.013Zm-1-.176a1.437,1.437,0,0,0-.16-.671,1.341,1.341,0,0,0-.429-.495,1.063,1.063,0,0,0-.621-.187H76.824V-.858h2.717a1.186,1.186,0,0,0,.655-.187,1.375,1.375,0,0,0,.462-.49A1.311,1.311,0,0,0,80.828-2.189Zm-4-4.763v2.607H79.31a1.111,1.111,0,0,0,.621-.176,1.273,1.273,0,0,0,.429-.473,1.35,1.35,0,0,0,.16-.649,1.446,1.446,0,0,0-.148-.666,1.229,1.229,0,0,0-.407-.468,1.021,1.021,0,0,0-.589-.176ZM86.5.11a2.9,2.9,0,0,1-1.182-.235A2.847,2.847,0,0,1,84.4-.769a2.939,2.939,0,0,1-.605-.944,3.023,3.023,0,0,1-.214-1.136,2.958,2.958,0,0,1,.374-1.474,2.89,2.89,0,0,1,1.04-1.07,2.877,2.877,0,0,1,1.523-.4,2.755,2.755,0,0,1,1.512.41,2.871,2.871,0,0,1,1,1.071,2.951,2.951,0,0,1,.358,1.426q0,.109-.006.213a1.176,1.176,0,0,1-.017.158H84.6a2.14,2.14,0,0,0,.313.984,1.963,1.963,0,0,0,.7.674,1.834,1.834,0,0,0,.924.245,1.993,1.993,0,0,0,1-.264,1.411,1.411,0,0,0,.644-.693l.836.231a2.214,2.214,0,0,1-.556.748,2.708,2.708,0,0,1-.869.517A3.071,3.071,0,0,1,86.5.11Zm-1.936-3.3h3.916a2.068,2.068,0,0,0-.319-.979,1.977,1.977,0,0,0-.7-.663,1.91,1.91,0,0,0-.946-.239,1.888,1.888,0,0,0-.935.239,1.932,1.932,0,0,0-.7.663A2.1,2.1,0,0,0,84.568-3.19Zm6.82-4.84h.968v6.575q0,.475.132.586a.481.481,0,0,0,.319.111,1.9,1.9,0,0,0,.44-.049,2.785,2.785,0,0,0,.352-.1l.154.792a3.153,3.153,0,0,1-.572.165A3.016,3.016,0,0,1,92.6.11a1.206,1.206,0,0,1-.885-.32,1.2,1.2,0,0,1-.325-.895ZM95.414,0V-5.742h.968V0Zm0-6.82V-8.03h.968v1.21ZM102.894,0,100.9-2.783,99.814-1.764V0h-.968V-8.03h.968v5.258l2.97-2.937h1.045l-2.288,2.367L103.939,0Zm7.766,0h-.968V-3.184a2.241,2.241,0,0,0-.313-1.308,1.037,1.037,0,0,0-.9-.436,1.633,1.633,0,0,0-.754.2,2.211,2.211,0,0,0-.665.527,2.086,2.086,0,0,0-.418.766V0h-.968V-8.03h.968v3.554a2.568,2.568,0,0,1,.929-.966,2.417,2.417,0,0,1,1.271-.355,1.859,1.859,0,0,1,.864.18,1.43,1.43,0,0,1,.556.508,2.305,2.305,0,0,1,.3.759,4.459,4.459,0,0,1,.093.944Zm2.354-2.285V-5.709h.968v3.235a2.282,2.282,0,0,0,.308,1.311,1.045,1.045,0,0,0,.913.437,1.815,1.815,0,0,0,.764-.169,2.125,2.125,0,0,0,.666-.485,2.245,2.245,0,0,0,.462-.752V-5.709h.968V-1.1a.384.384,0,0,0,.072.257.33.33,0,0,0,.236.093V0q-.165.022-.258.028t-.182.005a.7.7,0,0,1-.473-.17.567.567,0,0,1-.209-.421l-.022-.667a2.629,2.629,0,0,1-1.007.984,2.8,2.8,0,0,1-1.381.35A1.607,1.607,0,0,1,113.476-.5,2.921,2.921,0,0,1,113.014-2.285ZM125.565,0H124.6V-3.184a2.436,2.436,0,0,0-.28-1.325.955.955,0,0,0-.853-.42,1.74,1.74,0,0,0-.786.2,2.369,2.369,0,0,0-.693.527,1.972,1.972,0,0,0-.435.766V0h-.968V-5.709h.88v1.233a2.477,2.477,0,0,1,.594-.7,2.76,2.76,0,0,1,.825-.459,2.875,2.875,0,0,1,.968-.164,1.739,1.739,0,0,1,.831.18,1.343,1.343,0,0,1,.528.5,2.3,2.3,0,0,1,.275.759,5.121,5.121,0,0,1,.082.95Z"
			transform="translate(243 65)" fill="rgba(0,0,0,0.5)" />
	</g>

	<g class="fade-up d-05">
		<path id="fs_web_dev" data-name="fs web dev"
			d="M1.53,0V-12.78H9.972v1.44H3.15v4.266H8.892v1.35H3.15V0ZM17.658.09a5.637,5.637,0,0,1-2.574-.531,4.449,4.449,0,0,1-1.674-1.44,6.238,6.238,0,0,1-.918-2.061A9.759,9.759,0,0,1,12.2-6.318V-12.78h1.62v6.462a8.781,8.781,0,0,0,.189,1.827A4.988,4.988,0,0,0,14.634-2.9,3.168,3.168,0,0,0,15.8-1.782a3.71,3.71,0,0,0,1.836.414,3.686,3.686,0,0,0,1.854-.423,3.215,3.215,0,0,0,1.17-1.134,5.1,5.1,0,0,0,.621-1.593,8.567,8.567,0,0,0,.189-1.8V-12.78h1.62v6.462a9.881,9.881,0,0,1-.3,2.457,5.866,5.866,0,0,1-.945,2.043,4.565,4.565,0,0,1-1.683,1.4A5.609,5.609,0,0,1,17.658.09ZM26.334,0V-12.78h1.62V-1.44h7.128V0ZM37.206,0V-12.78h1.62V-1.44h7.128V0ZM55.584-10.1a2.666,2.666,0,0,0-.576-.486,5.125,5.125,0,0,0-.81-.423,5.694,5.694,0,0,0-.981-.306,5.131,5.131,0,0,0-1.107-.117,3.489,3.489,0,0,0-2.178.556,1.84,1.84,0,0,0-.7,1.525,1.538,1.538,0,0,0,.36,1.077,2.587,2.587,0,0,0,1.107.646q.747.251,1.9.52a12.872,12.872,0,0,1,2.3.7,3.565,3.565,0,0,1,1.494,1.1,2.976,2.976,0,0,1,.522,1.839,3.39,3.39,0,0,1-.351,1.588,3.072,3.072,0,0,1-.981,1.113,4.353,4.353,0,0,1-1.476.646A7.739,7.739,0,0,1,52.272.09a8.687,8.687,0,0,1-1.9-.207,8.189,8.189,0,0,1-1.755-.6,7.531,7.531,0,0,1-1.548-.99l.774-1.368a4.024,4.024,0,0,0,.747.6,7.066,7.066,0,0,0,1.044.549,7.142,7.142,0,0,0,1.269.4,6.412,6.412,0,0,0,1.4.153,3.877,3.877,0,0,0,2.124-.493A1.613,1.613,0,0,0,55.188-3.3a1.569,1.569,0,0,0-.423-1.149,3.2,3.2,0,0,0-1.251-.718q-.828-.287-2.016-.574a13.9,13.9,0,0,1-2.178-.709A3.063,3.063,0,0,1,48-7.467,2.783,2.783,0,0,1,47.556-9.1a3.5,3.5,0,0,1,.594-2.064,3.65,3.65,0,0,1,1.638-1.274,6.132,6.132,0,0,1,2.358-.431,6.865,6.865,0,0,1,1.611.18,6.526,6.526,0,0,1,1.4.5,6.13,6.13,0,0,1,1.188.774ZM68.616-11.34h-4.41V0h-1.62V-11.34h-4.41v-1.44h10.44Zm4.878-1.44h1.368L80.082,0H78.354L76.92-3.744h-5.5L69.984,0H68.256ZM76.438-5l-2.26-5.9L71.908-5ZM80.856-6.5a6.728,6.728,0,0,1,.4-2.295,6.647,6.647,0,0,1,1.188-2.052,5.762,5.762,0,0,1,1.917-1.476,5.833,5.833,0,0,1,2.574-.549,5.329,5.329,0,0,1,2.934.783,4.9,4.9,0,0,1,1.818,2.007l-1.278.828a3.576,3.576,0,0,0-.963-1.287,3.577,3.577,0,0,0-1.26-.675,4.687,4.687,0,0,0-1.323-.2,3.972,3.972,0,0,0-1.881.432A4.2,4.2,0,0,0,83.61-9.828a5.089,5.089,0,0,0-.837,1.611,5.963,5.963,0,0,0-.279,1.791,5.552,5.552,0,0,0,.333,1.908,5.259,5.259,0,0,0,.927,1.62,4.514,4.514,0,0,0,1.4,1.116,3.819,3.819,0,0,0,1.764.414A4.313,4.313,0,0,0,88.29-1.6,4.185,4.185,0,0,0,89.6-2.331a3.467,3.467,0,0,0,.972-1.287l1.35.738A4.042,4.042,0,0,1,90.7-1.26,5.941,5.941,0,0,1,88.857-.252,6.27,6.27,0,0,1,86.85.09a5.178,5.178,0,0,1-2.412-.567,6.189,6.189,0,0,1-1.9-1.512A7.111,7.111,0,0,1,81.3-4.113,6.761,6.761,0,0,1,80.856-6.5ZM94.32,0V-12.78h1.62v7.066l6.588-7.084h1.746l-5.13,5.642L104.562,0h-1.818L98.118-6.183,95.94-3.912V0ZM115-12.762h2.718l1.332,4.086,1.332-4.086h2.736l-2.178,5.94,1.3,3.4,3.2-9.36h3.222L123.678,0h-2.556l-2.07-5L117,0h-2.574l-4.968-12.78h3.2l3.222,9.36,1.26-3.4ZM139.1-2.556,139.122,0h-8.964l-.018-12.78h8.8l.018,2.592-5.886-.036.018,2.52,5.022.018.018,2.376h-5.058l.018,2.718Zm12.744-.72a2.826,2.826,0,0,1-.585,1.827A3.5,3.5,0,0,1,149.688-.36,6.331,6.331,0,0,1,147.51,0h-6.228V-12.78h7.11a2.579,2.579,0,0,1,1.557.477,3.118,3.118,0,0,1,1.008,1.233,3.679,3.679,0,0,1,.351,1.566,3.415,3.415,0,0,1-.468,1.719,2.947,2.947,0,0,1-1.368,1.233A3.306,3.306,0,0,1,151.209-5.4,3.376,3.376,0,0,1,151.848-3.276Zm-3.006-.594a1.572,1.572,0,0,0-.162-.729,1.4,1.4,0,0,0-.423-.5,1.03,1.03,0,0,0-.621-.189h-3.4V-2.5h3.276a1.276,1.276,0,0,0,.675-.18,1.371,1.371,0,0,0,.477-.486A1.358,1.358,0,0,0,148.842-3.87Zm-4.608-6.39v2.646h2.9a1.3,1.3,0,0,0,.6-.144,1.154,1.154,0,0,0,.459-.441,1.42,1.42,0,0,0,.18-.747,1.523,1.523,0,0,0-.153-.72,1.111,1.111,0,0,0-.4-.441,1.088,1.088,0,0,0-.576-.153ZM158.508,0V-12.78h4.77a6.691,6.691,0,0,1,3.519.855,5.518,5.518,0,0,1,2.133,2.3,7.12,7.12,0,0,1,.72,3.213,6.914,6.914,0,0,1-.792,3.384,5.566,5.566,0,0,1-2.223,2.232A6.823,6.823,0,0,1,163.278,0Zm8.136-6.408a4.643,4.643,0,0,0-.4-1.971A3.049,3.049,0,0,0,165.1-9.711a3.337,3.337,0,0,0-1.818-.477H161.46v7.6h1.818a3.234,3.234,0,0,0,1.827-.495,3.168,3.168,0,0,0,1.143-1.368A4.675,4.675,0,0,0,166.644-6.408ZM180.72-2.556,180.738,0h-8.964l-.018-12.78h8.8l.018,2.592-5.886-.036.018,2.52,5.022.018.018,2.376H174.69l.018,2.718Zm4.032-10.224,3.006,9.324,2.97-9.324h3.114L189.2,0h-2.9l-4.68-12.78Z"
			transform="translate(58.47 138)" />
	</g>

	<g class="fade-right d-1">
		<path id="phpjs"
			d="M2.516,0V-24.14H12.75a6.885,6.885,0,0,1,3.06.68,7.873,7.873,0,0,1,2.431,1.836,8.771,8.771,0,0,1,1.615,2.584,7.278,7.278,0,0,1,.544,2.924,8.462,8.462,0,0,1-.935,3.859,7.831,7.831,0,0,1-2.6,2.992A7.009,7.009,0,0,1,12.92-8.092L7.174-8.126,7.208,0ZM7.208-12.206h5.44a2.605,2.605,0,0,0,1.53-.476,3.282,3.282,0,0,0,1.088-1.377,5.025,5.025,0,0,0,.408-2.091,4.521,4.521,0,0,0-.459-2.108,3.246,3.246,0,0,0-1.19-1.326,3,3,0,0,0-1.581-.442l-5.27-.034ZM45.526-24.14,45.56,0H40.9V-10.3l-11.016-.034L29.954,0H25.3l-.034-24.14h4.624l.068,9.758,10.948.034V-24.14ZM52.156,0V-24.14H62.39a6.885,6.885,0,0,1,3.06.68,7.873,7.873,0,0,1,2.431,1.836A8.771,8.771,0,0,1,69.5-19.04a7.278,7.278,0,0,1,.544,2.924,8.462,8.462,0,0,1-.935,3.859,7.831,7.831,0,0,1-2.6,2.992A7.009,7.009,0,0,1,62.56-8.092l-5.746-.034L56.848,0Zm4.692-12.206h5.44a2.605,2.605,0,0,0,1.53-.476,3.282,3.282,0,0,0,1.088-1.377,5.025,5.025,0,0,0,.408-2.091,4.521,4.521,0,0,0-.459-2.108,3.246,3.246,0,0,0-1.19-1.326,3,3,0,0,0-1.581-.442l-5.27-.034ZM106.726-24.14,89.182,0H82.076l17.51-24.14Zm18.292,0L107.474,0h-7.106l17.51-24.14ZM137.564-5.134a7.989,7.989,0,0,0,1.564.731,7.481,7.481,0,0,0,2.652.425,4.594,4.594,0,0,0,2.176-.454A3.067,3.067,0,0,0,145.265-5.8a6.863,6.863,0,0,0,.612-2.356,33.608,33.608,0,0,0,.153-3.467V-24.14h4.692v12.172a36.308,36.308,0,0,1-.306,4.923,11.128,11.128,0,0,1-1.19,3.844,5.91,5.91,0,0,1-2.669,2.5,10.842,10.842,0,0,1-4.743.877A10.519,10.519,0,0,1,138.89-.2a8.193,8.193,0,0,1-2.38-1.122Zm33.864-12.682a5.8,5.8,0,0,0-.867-.646,9.56,9.56,0,0,0-1.53-.782,16.44,16.44,0,0,0-1.955-.663,8.065,8.065,0,0,0-2.142-.289,4.834,4.834,0,0,0-2.873.711,2.331,2.331,0,0,0-.969,2,2.033,2.033,0,0,0,.612,1.556,4.949,4.949,0,0,0,1.836.981q1.224.406,3.06.879a21.5,21.5,0,0,1,4.131,1.4,6.659,6.659,0,0,1,2.686,2.165,6.049,6.049,0,0,1,.935,3.535,7.058,7.058,0,0,1-.714,3.3,5.921,5.921,0,0,1-1.972,2.216A8.8,8.8,0,0,1,168.81-.219a14.332,14.332,0,0,1-3.4.389,17.692,17.692,0,0,1-3.6-.374,18.931,18.931,0,0,1-3.468-1.071,15.912,15.912,0,0,1-3.06-1.683L157.352-7a6.738,6.738,0,0,0,1.088.8,14.649,14.649,0,0,0,1.9.986,15.893,15.893,0,0,0,2.448.833,10.773,10.773,0,0,0,2.686.34,5.348,5.348,0,0,0,2.89-.639,2.041,2.041,0,0,0,.986-1.816,2.026,2.026,0,0,0-.782-1.693A7.208,7.208,0,0,0,166.4-9.26q-1.394-.457-3.3-1A20.279,20.279,0,0,1,159.29-11.7a5.63,5.63,0,0,1-2.278-2.014,5.732,5.732,0,0,1-.748-3.047,7.056,7.056,0,0,1,1.173-4.148,7.311,7.311,0,0,1,3.179-2.539,11.151,11.151,0,0,1,4.454-.864,13.351,13.351,0,0,1,3.213.374,15.812,15.812,0,0,1,2.839.986,16.765,16.765,0,0,1,2.38,1.326Z"
			transform="translate(57.484 180)" />
	</g>

	<line id="line" x1="60" y1="108" x2="252.5" y2="108" class="fade-scale d-1" fill="none" stroke="#000" stroke-width="3" />

	<g id="stars" transform="translate(-360.264 -3333)">
		<g class="fade-up d-3 small">
			<path id="Path_34" data-name="Path 34"
				d="M5.964-6.288a2.047,2.047,0,0,0-.306-.228,3.374,3.374,0,0,0-.54-.276,5.8,5.8,0,0,0-.69-.234,2.846,2.846,0,0,0-.756-.1,1.706,1.706,0,0,0-1.014.251.823.823,0,0,0-.342.7.718.718,0,0,0,.216.549,1.747,1.747,0,0,0,.648.346q.432.143,1.08.31a7.588,7.588,0,0,1,1.458.5,2.35,2.35,0,0,1,.948.764A2.135,2.135,0,0,1,7-2.459,2.491,2.491,0,0,1,6.744-1.3a2.09,2.09,0,0,1-.7.782A3.107,3.107,0,0,1,5.04-.077,5.058,5.058,0,0,1,3.84.06,6.244,6.244,0,0,1,2.568-.072,6.681,6.681,0,0,1,1.344-.45a5.616,5.616,0,0,1-1.08-.594L1-2.472a2.378,2.378,0,0,0,.384.282,5.17,5.17,0,0,0,.672.348,5.609,5.609,0,0,0,.864.294,3.8,3.8,0,0,0,.948.12,1.887,1.887,0,0,0,1.02-.225.72.72,0,0,0,.348-.641.715.715,0,0,0-.276-.6,2.544,2.544,0,0,0-.768-.376Q3.7-3.43,3.024-3.621A7.157,7.157,0,0,1,1.68-4.129a1.987,1.987,0,0,1-.8-.711A2.023,2.023,0,0,1,.612-5.915a2.49,2.49,0,0,1,.414-1.464,2.58,2.58,0,0,1,1.122-.9,3.936,3.936,0,0,1,1.572-.3,4.712,4.712,0,0,1,1.134.132,5.581,5.581,0,0,1,1,.348,5.917,5.917,0,0,1,.84.468Zm9.192-.8-2.712.024V0H10.8l.012-7.092-2.736.024L8.088-8.52h7.08ZM18.3-8.52h1.68L23.112,0h-1.7L20.7-2.124H17.572L16.86,0h-1.7Zm2.012,5.232L19.14-6.8,17.962-3.288ZM24.6,0V-8.52h3.768a2.468,2.468,0,0,1,1.086.24,2.757,2.757,0,0,1,.864.648,3,3,0,0,1,.564.912,2.8,2.8,0,0,1,.2,1.032,2.943,2.943,0,0,1-.186,1.038,2.58,2.58,0,0,1-.534.87,2.442,2.442,0,0,1-.816.576L31.488,0H29.664L27.912-2.856H26.256V0Zm1.656-4.308h2.076a.876.876,0,0,0,.552-.186,1.31,1.31,0,0,0,.384-.5,1.641,1.641,0,0,0,.144-.7,1.46,1.46,0,0,0-.168-.714,1.4,1.4,0,0,0-.426-.486.956.956,0,0,0-.558-.18h-2Zm11.952-1.98a2.047,2.047,0,0,0-.306-.228,3.374,3.374,0,0,0-.54-.276,5.8,5.8,0,0,0-.69-.234,2.846,2.846,0,0,0-.756-.1,1.706,1.706,0,0,0-1.014.251.823.823,0,0,0-.342.7.718.718,0,0,0,.216.549,1.747,1.747,0,0,0,.648.346q.432.143,1.08.31a7.588,7.588,0,0,1,1.458.5,2.35,2.35,0,0,1,.948.764,2.135,2.135,0,0,1,.33,1.248A2.491,2.491,0,0,1,38.988-1.3a2.09,2.09,0,0,1-.7.782,3.107,3.107,0,0,1-1.008.436,5.058,5.058,0,0,1-1.2.137,6.244,6.244,0,0,1-1.272-.132A6.681,6.681,0,0,1,33.588-.45a5.616,5.616,0,0,1-1.08-.594l.732-1.428a2.378,2.378,0,0,0,.384.282,5.17,5.17,0,0,0,.672.348,5.609,5.609,0,0,0,.864.294,3.8,3.8,0,0,0,.948.12,1.887,1.887,0,0,0,1.02-.225.72.72,0,0,0,.348-.641.715.715,0,0,0-.276-.6,2.544,2.544,0,0,0-.768-.376q-.492-.161-1.164-.352a7.157,7.157,0,0,1-1.344-.508,1.987,1.987,0,0,1-.8-.711,2.023,2.023,0,0,1-.264-1.076,2.49,2.49,0,0,1,.414-1.464,2.58,2.58,0,0,1,1.122-.9,3.936,3.936,0,0,1,1.572-.3,4.712,4.712,0,0,1,1.134.132,5.581,5.581,0,0,1,1,.348,5.917,5.917,0,0,1,.84.468Z"
				transform="translate(420 3703)" />
		</g>

		<g class="fade-right d-3 small">
			<text id="_00" data-name="00" transform="translate(468 3703)" font-size="12"
				font-family="SegoeUI-Bold, Segoe UI" font-weight="700" letter-spacing="0.046em">
				<tspan x="0" y="0">72</tspan>
			</text>
		</g>
	</g>

	<g class="fade-right d-35 small">
		<path id="sep" d="M9.012-8.52,2.82,0H.312l6.18-8.52Zm6.456,0L9.276,0H6.768l6.18-8.52Z"
			transform="translate(140 370.26)" fill="rgba(0,0,0,0.3)" />
	</g>

	<g id="followers" transform="translate(-247.108 -3333)">
		<g class="fade-up d-4 small">
			<path id="Path_35" data-name="Path 35"
				d="M.9,0,.888-8.52H6.624L6.612-7.068,2.52-7.092l.024,2.22,3.372.012.012,1.332L2.52-3.54,2.544,0ZM11.832.06a3.926,3.926,0,0,1-1.7-.36,4.011,4.011,0,0,1-1.308-.978A4.592,4.592,0,0,1,7.98-2.67a4.364,4.364,0,0,1-.3-1.59A4.237,4.237,0,0,1,8-5.886a4.6,4.6,0,0,1,.876-1.38,4.154,4.154,0,0,1,1.32-.96,3.924,3.924,0,0,1,1.674-.354,3.791,3.791,0,0,1,1.686.372,4.052,4.052,0,0,1,1.3,1A4.757,4.757,0,0,1,15.7-5.82,4.317,4.317,0,0,1,16-4.236a4.277,4.277,0,0,1-.312,1.614,4.507,4.507,0,0,1-.87,1.38,4.077,4.077,0,0,1-1.32.954A3.953,3.953,0,0,1,11.832.06ZM9.36-4.26a3.428,3.428,0,0,0,.168,1.068,2.924,2.924,0,0,0,.486.918,2.317,2.317,0,0,0,.78.636,2.291,2.291,0,0,0,1.05.234,2.261,2.261,0,0,0,1.068-.246,2.308,2.308,0,0,0,.78-.66,3.064,3.064,0,0,0,.474-.924,3.371,3.371,0,0,0,.162-1.026,3.266,3.266,0,0,0-.174-1.062,3.038,3.038,0,0,0-.492-.912,2.317,2.317,0,0,0-.78-.636A2.264,2.264,0,0,0,11.844-7.1a2.252,2.252,0,0,0-1.074.246A2.355,2.355,0,0,0,10-6.2a3,3,0,0,0-.474.912A3.352,3.352,0,0,0,9.36-4.26ZM17.832,0,17.82-8.52h1.632l.024,7.068,4.332.024L23.82,0Zm7.56,0L25.38-8.52h1.632l.024,7.068,4.332.024L31.38,0ZM36.384.06a3.926,3.926,0,0,1-1.7-.36,4.011,4.011,0,0,1-1.308-.978,4.592,4.592,0,0,1-.846-1.392,4.364,4.364,0,0,1-.3-1.59,4.237,4.237,0,0,1,.318-1.626,4.6,4.6,0,0,1,.876-1.38,4.154,4.154,0,0,1,1.32-.96A3.924,3.924,0,0,1,36.42-8.58a3.791,3.791,0,0,1,1.686.372,4.052,4.052,0,0,1,1.3,1,4.757,4.757,0,0,1,.84,1.392,4.317,4.317,0,0,1,.3,1.584,4.277,4.277,0,0,1-.312,1.614,4.507,4.507,0,0,1-.87,1.38,4.077,4.077,0,0,1-1.32.954A3.953,3.953,0,0,1,36.384.06ZM33.912-4.26a3.428,3.428,0,0,0,.168,1.068,2.924,2.924,0,0,0,.486.918,2.317,2.317,0,0,0,.78.636A2.291,2.291,0,0,0,36.4-1.4a2.261,2.261,0,0,0,1.068-.246,2.308,2.308,0,0,0,.78-.66,3.064,3.064,0,0,0,.474-.924A3.372,3.372,0,0,0,38.88-4.26a3.266,3.266,0,0,0-.174-1.062,3.038,3.038,0,0,0-.492-.912,2.317,2.317,0,0,0-.78-.636A2.265,2.265,0,0,0,36.4-7.1a2.252,2.252,0,0,0-1.074.246,2.355,2.355,0,0,0-.774.654,3,3,0,0,0-.474.912A3.352,3.352,0,0,0,33.912-4.26ZM44.952-8.5h1.536l.972,2.82.984-2.82h1.524L48.5-4.62l1.08,2.712L52-8.52h1.8L50.388,0H48.96l-1.5-3.576L45.972,0H44.544l-3.4-8.52h1.776l2.424,6.612L46.4-4.62ZM61.128-1.428,61.14,0h-5.9l-.012-8.52h5.8l.012,1.452-4.176-.024.024,2.076L60.456-5l.012,1.332H56.856l.024,2.22ZM62.988,0V-8.52h3.768a2.468,2.468,0,0,1,1.086.24,2.757,2.757,0,0,1,.864.648,3,3,0,0,1,.564.912,2.8,2.8,0,0,1,.2,1.032,2.943,2.943,0,0,1-.186,1.038,2.579,2.579,0,0,1-.534.87,2.442,2.442,0,0,1-.816.576L69.876,0H68.052L66.3-2.856H64.644V0Zm1.656-4.308H66.72a.876.876,0,0,0,.552-.186,1.31,1.31,0,0,0,.384-.5,1.641,1.641,0,0,0,.144-.7,1.46,1.46,0,0,0-.168-.714,1.4,1.4,0,0,0-.426-.486.956.956,0,0,0-.558-.18h-2ZM76.6-6.288a2.047,2.047,0,0,0-.306-.228,3.374,3.374,0,0,0-.54-.276,5.8,5.8,0,0,0-.69-.234,2.846,2.846,0,0,0-.756-.1,1.706,1.706,0,0,0-1.014.251.823.823,0,0,0-.342.7.718.718,0,0,0,.216.549,1.747,1.747,0,0,0,.648.346q.432.143,1.08.31a7.588,7.588,0,0,1,1.458.5,2.35,2.35,0,0,1,.948.764,2.135,2.135,0,0,1,.33,1.248A2.491,2.491,0,0,1,77.376-1.3a2.09,2.09,0,0,1-.7.782,3.107,3.107,0,0,1-1.008.436,5.058,5.058,0,0,1-1.2.137A6.244,6.244,0,0,1,73.2-.072,6.681,6.681,0,0,1,71.976-.45a5.616,5.616,0,0,1-1.08-.594l.732-1.428a2.378,2.378,0,0,0,.384.282,5.17,5.17,0,0,0,.672.348,5.609,5.609,0,0,0,.864.294,3.8,3.8,0,0,0,.948.12,1.887,1.887,0,0,0,1.02-.225.72.72,0,0,0,.348-.641.715.715,0,0,0-.276-.6,2.544,2.544,0,0,0-.768-.376q-.492-.161-1.164-.352a7.157,7.157,0,0,1-1.344-.508,1.987,1.987,0,0,1-.8-.711,2.023,2.023,0,0,1-.264-1.076,2.49,2.49,0,0,1,.414-1.464,2.581,2.581,0,0,1,1.122-.9,3.936,3.936,0,0,1,1.572-.3,4.712,4.712,0,0,1,1.134.132,5.581,5.581,0,0,1,1,.348,5.917,5.917,0,0,1,.84.468Z"
				transform="translate(420 3703)" />
		</g>

		<g class="fade-right d-4 small">
			<text id="_00-2" data-name="00" transform="translate(506 3703)" font-size="12"
				font-family="SegoeUI-Bold, Segoe UI" font-weight="700" letter-spacing="0.046em">
				<tspan x="0" y="0">35</tspan>
			</text>
		</g>
	</g>

	<g class="fade-right d-45 small">
		<path id="sep-2" data-name="sep" d="M9.012-8.52,2.82,0H.312l6.18-8.52Zm6.456,0L9.276,0H6.768l6.18-8.52Z"
			transform="translate(290.892 370.26)" fill="rgba(0,0,0,0.3)" />
	</g>

	<g id="repos" transform="translate(-96.216 -3333)">
		<g class="fade-up d-5 small">
			<path id="Path_36" data-name="Path 36"
				d="M.888,0V-8.52H4.656a2.468,2.468,0,0,1,1.086.24,2.757,2.757,0,0,1,.864.648,3,3,0,0,1,.564.912,2.8,2.8,0,0,1,.2,1.032A2.943,2.943,0,0,1,7.182-4.65a2.58,2.58,0,0,1-.534.87,2.442,2.442,0,0,1-.816.576L7.776,0H5.952L4.2-2.856H2.544V0ZM2.544-4.308H4.62a.876.876,0,0,0,.552-.186,1.31,1.31,0,0,0,.384-.5,1.641,1.641,0,0,0,.144-.7A1.46,1.46,0,0,0,5.532-6.4a1.4,1.4,0,0,0-.426-.486.956.956,0,0,0-.558-.18h-2Zm12.78,2.88L15.336,0h-5.9L9.42-8.52h5.8l.012,1.452-4.176-.024.024,2.076L14.652-5l.012,1.332H11.052l.024,2.22ZM17.184,0V-8.52H20.8a2.43,2.43,0,0,1,1.08.24,2.779,2.779,0,0,1,.858.648,3.1,3.1,0,0,1,.57.912A2.569,2.569,0,0,1,23.5-5.688a2.986,2.986,0,0,1-.33,1.362,2.764,2.764,0,0,1-.918,1.056,2.474,2.474,0,0,1-1.392.414l-2.028-.012L18.84,0ZM18.84-4.308h1.92a.919.919,0,0,0,.54-.168,1.158,1.158,0,0,0,.384-.486,1.773,1.773,0,0,0,.144-.738,1.6,1.6,0,0,0-.162-.744,1.146,1.146,0,0,0-.42-.468,1.059,1.059,0,0,0-.558-.156l-1.86-.012ZM28.848.06a3.926,3.926,0,0,1-1.7-.36,4.011,4.011,0,0,1-1.308-.978A4.592,4.592,0,0,1,25-2.67a4.364,4.364,0,0,1-.3-1.59,4.237,4.237,0,0,1,.318-1.626,4.6,4.6,0,0,1,.876-1.38,4.154,4.154,0,0,1,1.32-.96,3.924,3.924,0,0,1,1.674-.354,3.791,3.791,0,0,1,1.686.372,4.052,4.052,0,0,1,1.3,1,4.757,4.757,0,0,1,.84,1.392,4.317,4.317,0,0,1,.3,1.584A4.277,4.277,0,0,1,32.7-2.622a4.507,4.507,0,0,1-.87,1.38,4.077,4.077,0,0,1-1.32.954A3.953,3.953,0,0,1,28.848.06ZM26.376-4.26a3.428,3.428,0,0,0,.168,1.068,2.924,2.924,0,0,0,.486.918,2.317,2.317,0,0,0,.78.636,2.292,2.292,0,0,0,1.05.234,2.261,2.261,0,0,0,1.068-.246,2.308,2.308,0,0,0,.78-.66,3.064,3.064,0,0,0,.474-.924,3.371,3.371,0,0,0,.162-1.026,3.266,3.266,0,0,0-.174-1.062,3.038,3.038,0,0,0-.492-.912,2.317,2.317,0,0,0-.78-.636A2.264,2.264,0,0,0,28.86-7.1a2.252,2.252,0,0,0-1.074.246,2.355,2.355,0,0,0-.774.654,3,3,0,0,0-.474.912A3.352,3.352,0,0,0,26.376-4.26Zm13.5-2.028a2.047,2.047,0,0,0-.306-.228,3.374,3.374,0,0,0-.54-.276,5.8,5.8,0,0,0-.69-.234,2.846,2.846,0,0,0-.756-.1,1.706,1.706,0,0,0-1.014.251.823.823,0,0,0-.342.7.718.718,0,0,0,.216.549,1.747,1.747,0,0,0,.648.346q.432.143,1.08.31a7.588,7.588,0,0,1,1.458.5,2.35,2.35,0,0,1,.948.764,2.135,2.135,0,0,1,.33,1.248A2.491,2.491,0,0,1,40.656-1.3a2.09,2.09,0,0,1-.7.782,3.107,3.107,0,0,1-1.008.436,5.058,5.058,0,0,1-1.2.137A6.244,6.244,0,0,1,36.48-.072,6.681,6.681,0,0,1,35.256-.45a5.616,5.616,0,0,1-1.08-.594l.732-1.428a2.378,2.378,0,0,0,.384.282,5.17,5.17,0,0,0,.672.348,5.609,5.609,0,0,0,.864.294,3.8,3.8,0,0,0,.948.12,1.887,1.887,0,0,0,1.02-.225.72.72,0,0,0,.348-.641.715.715,0,0,0-.276-.6,2.544,2.544,0,0,0-.768-.376q-.492-.161-1.164-.352a7.157,7.157,0,0,1-1.344-.508,1.987,1.987,0,0,1-.8-.711,2.023,2.023,0,0,1-.264-1.076,2.49,2.49,0,0,1,.414-1.464,2.58,2.58,0,0,1,1.122-.9,3.936,3.936,0,0,1,1.572-.3,4.712,4.712,0,0,1,1.134.132,5.581,5.581,0,0,1,1,.348,5.917,5.917,0,0,1,.84.468Z"
				transform="translate(420 3703)" />
		</g>

		<g class="fade-right d-5 small">
			<text id="_00-3" data-name="00" transform="translate(469 3703)" font-size="12"
				font-family="SegoeUI-Bold, Segoe UI" font-weight="700" letter-spacing="0.046em">
				<tspan x="0" y="0">27</tspan>
			</text>
		</g>
	</g>

	<g class="fade-right d-55 small">
		<path id="sep-3" data-name="sep" d="M9.012-8.52,2.82,0H.312l6.18-8.52Zm6.456,0L9.276,0H6.768l6.18-8.52Z"
			transform="translate(404.784 370.26)" fill="rgba(0,0,0,0.3)" />
	</g>

	<g id="commits" transform="translate(18.192 -3333)">
		<g class="fade-up d-6 small">
			<path id="Path_37" data-name="Path 37"
				d="M.372-4.332a4.315,4.315,0,0,1,.282-1.53A4.441,4.441,0,0,1,1.476-7.23,3.966,3.966,0,0,1,2.8-8.214,4.134,4.134,0,0,1,4.572-8.58a3.872,3.872,0,0,1,2.034.516A3.3,3.3,0,0,1,7.884-6.72l-1.272.876a2.032,2.032,0,0,0-.564-.762A2.1,2.1,0,0,0,5.3-7a2.81,2.81,0,0,0-.78-.114,2.234,2.234,0,0,0-1.086.252,2.422,2.422,0,0,0-.774.66,2.8,2.8,0,0,0-.462.912,3.518,3.518,0,0,0-.15,1.008A3.308,3.308,0,0,0,2.232-3.2a2.965,2.965,0,0,0,.51.924,2.441,2.441,0,0,0,.792.636A2.212,2.212,0,0,0,4.548-1.4a2.6,2.6,0,0,0,.8-.132,2.28,2.28,0,0,0,.756-.42,1.906,1.906,0,0,0,.54-.744L8-1.92A2.539,2.539,0,0,1,7.182-.84,4.113,4.113,0,0,1,5.9-.168,4.56,4.56,0,0,1,4.5.06,3.677,3.677,0,0,1,2.832-.318a4.176,4.176,0,0,1-1.3-1.008A4.809,4.809,0,0,1,.678-2.742,4.351,4.351,0,0,1,.372-4.332ZM13.2.06A3.926,3.926,0,0,1,11.5-.3a4.011,4.011,0,0,1-1.308-.978A4.592,4.592,0,0,1,9.348-2.67a4.364,4.364,0,0,1-.3-1.59,4.237,4.237,0,0,1,.318-1.626,4.6,4.6,0,0,1,.876-1.38,4.154,4.154,0,0,1,1.32-.96,3.924,3.924,0,0,1,1.674-.354,3.791,3.791,0,0,1,1.686.372,4.052,4.052,0,0,1,1.3,1,4.757,4.757,0,0,1,.84,1.392,4.317,4.317,0,0,1,.3,1.584,4.277,4.277,0,0,1-.312,1.614,4.507,4.507,0,0,1-.87,1.38,4.077,4.077,0,0,1-1.32.954A3.953,3.953,0,0,1,13.2.06ZM10.728-4.26A3.428,3.428,0,0,0,10.9-3.192a2.924,2.924,0,0,0,.486.918,2.317,2.317,0,0,0,.78.636,2.291,2.291,0,0,0,1.05.234A2.261,2.261,0,0,0,14.28-1.65a2.308,2.308,0,0,0,.78-.66,3.064,3.064,0,0,0,.474-.924A3.371,3.371,0,0,0,15.7-4.26a3.266,3.266,0,0,0-.174-1.062,3.038,3.038,0,0,0-.492-.912,2.317,2.317,0,0,0-.78-.636A2.264,2.264,0,0,0,13.212-7.1a2.252,2.252,0,0,0-1.074.246,2.355,2.355,0,0,0-.774.654,3,3,0,0,0-.474.912A3.352,3.352,0,0,0,10.728-4.26ZM26.136,0V-5.592L23.952-1.428h-.924L20.844-5.592V0H19.188V-8.52h1.776l2.52,4.848L26.028-8.52h1.764V0ZM37.068,0V-5.592L34.884-1.428H33.96L31.776-5.592V0H30.12V-8.52H31.9l2.52,4.848L36.96-8.52h1.764V0Zm3.984,0V-8.52H42.7L42.708,0ZM51.4-7.092l-2.712.024V0H47.04l.012-7.092-2.736.024.012-1.452h7.08Zm6.7.8a2.047,2.047,0,0,0-.306-.228,3.374,3.374,0,0,0-.54-.276,5.8,5.8,0,0,0-.69-.234,2.846,2.846,0,0,0-.756-.1,1.706,1.706,0,0,0-1.014.251.823.823,0,0,0-.342.7.718.718,0,0,0,.216.549,1.747,1.747,0,0,0,.648.346q.432.143,1.08.31a7.588,7.588,0,0,1,1.458.5,2.35,2.35,0,0,1,.948.764,2.135,2.135,0,0,1,.33,1.248A2.491,2.491,0,0,1,58.872-1.3a2.09,2.09,0,0,1-.7.782,3.107,3.107,0,0,1-1.008.436,5.058,5.058,0,0,1-1.2.137A6.244,6.244,0,0,1,54.7-.072,6.681,6.681,0,0,1,53.472-.45a5.616,5.616,0,0,1-1.08-.594l.732-1.428a2.378,2.378,0,0,0,.384.282,5.17,5.17,0,0,0,.672.348,5.609,5.609,0,0,0,.864.294,3.8,3.8,0,0,0,.948.12,1.887,1.887,0,0,0,1.02-.225.72.72,0,0,0,.348-.641.715.715,0,0,0-.276-.6,2.544,2.544,0,0,0-.768-.376q-.492-.161-1.164-.352a7.157,7.157,0,0,1-1.344-.508A1.987,1.987,0,0,1,53-4.84a2.023,2.023,0,0,1-.264-1.076,2.49,2.49,0,0,1,.414-1.464,2.58,2.58,0,0,1,1.122-.9,3.936,3.936,0,0,1,1.572-.3,4.712,4.712,0,0,1,1.134.132,5.581,5.581,0,0,1,1,.348,5.917,5.917,0,0,1,.84.468Z"
				transform="translate(420 3703)" />
		</g>

		<g class="fade-right d-6 small">
			<text id="_00-4" data-name="00" transform="translate(487 3703)" font-size="12"
				font-family="SegoeUI-Bold, Segoe UI" font-weight="700" letter-spacing="0.046em">
				<tspan x="0" y="0">2433</tspan>
			</text>
		</g>
	</g>

	<line id="cursor" x2="57" transform="translate(902.5 239.51)" fill="none" stroke="rgba(0,0,0,0.4)"
		stroke-width="10" />
	
	<g class="fade-down d-4 small">
		<path id="f1"
			d="M-128.37-3.982a3.882,3.882,0,0,1,.264-1.4,3.983,3.983,0,0,1,.77-1.249,3.761,3.761,0,0,1,1.232-.9,3.89,3.89,0,0,1,1.65-.335,3.712,3.712,0,0,1,1.909.473,3.059,3.059,0,0,1,1.2,1.232l-1.386.968a1.6,1.6,0,0,0-.467-.649,1.755,1.755,0,0,0-.638-.325,2.553,2.553,0,0,0-.666-.093,1.9,1.9,0,0,0-.9.2,1.872,1.872,0,0,0-.638.544,2.367,2.367,0,0,0-.374.759,2.994,2.994,0,0,0-.121.836,2.8,2.8,0,0,0,.143.891,2.374,2.374,0,0,0,.412.759,1.976,1.976,0,0,0,.655.523,1.867,1.867,0,0,0,.847.192,2.178,2.178,0,0,0,.671-.11,1.947,1.947,0,0,0,.632-.347,1.5,1.5,0,0,0,.446-.622l1.474.869a2.326,2.326,0,0,1-.759.979,3.894,3.894,0,0,1-1.193.622,4.268,4.268,0,0,1-1.314.215,3.5,3.5,0,0,1-1.557-.347,3.9,3.9,0,0,1-1.221-.924,4.289,4.289,0,0,1-.792-1.3A4.017,4.017,0,0,1-128.37-3.982Zm9.933-3.828,1.837,5.7,1.815-5.7h1.9L-115.72,0h-1.771l-2.86-7.81ZM-104.555.11A2.312,2.312,0,0,1-105.749-.2a2.315,2.315,0,0,1-.841-.842V0h-1.067V-8.03h1.21v3.421a2.648,2.648,0,0,1,.853-.869,2.229,2.229,0,0,1,1.2-.319,2.278,2.278,0,0,1,1.045.24,2.463,2.463,0,0,1,.808.654,3.051,3.051,0,0,1,.517.948,3.5,3.5,0,0,1,.181,1.134,3.155,3.155,0,0,1-.2,1.133,2.862,2.862,0,0,1-.577.937,2.766,2.766,0,0,1-.864.632A2.5,2.5,0,0,1-104.555.11Zm-.319-1.034a1.666,1.666,0,0,0,.726-.157,1.874,1.874,0,0,0,.572-.417,1.772,1.772,0,0,0,.368-.607,2.075,2.075,0,0,0,.127-.716,2.168,2.168,0,0,0-.215-.954,1.83,1.83,0,0,0-.6-.716,1.508,1.508,0,0,0-.891-.271,1.442,1.442,0,0,0-.682.168,2.019,2.019,0,0,0-.566.445,2.694,2.694,0,0,0-.413.613v1.5a1.174,1.174,0,0,0,.231.45,1.75,1.75,0,0,0,.385.347,2.053,2.053,0,0,0,.473.233A1.491,1.491,0,0,0-104.874-.924ZM-97.24.11a3.04,3.04,0,0,1-1.215-.235,2.878,2.878,0,0,1-.94-.644,2.909,2.909,0,0,1-.611-.939,2.981,2.981,0,0,1-.215-1.13,2.969,2.969,0,0,1,.374-1.474A2.9,2.9,0,0,1-98.8-5.389,2.968,2.968,0,0,1-97.229-5.8a2.88,2.88,0,0,1,1.556.408,2.868,2.868,0,0,1,1.018,1.073,2.93,2.93,0,0,1,.363,1.427q0,.131-.011.245t-.022.191h-4.609a1.767,1.767,0,0,0,.281.874,1.774,1.774,0,0,0,.632.586,1.685,1.685,0,0,0,.825.212,1.86,1.86,0,0,0,.919-.242,1.249,1.249,0,0,0,.589-.638l1.034.3a2.208,2.208,0,0,1-.566.754,2.827,2.827,0,0,1-.9.528A3.191,3.191,0,0,1-97.24.11Zm-1.727-3.366h3.476a1.731,1.731,0,0,0-.281-.857A1.783,1.783,0,0,0-96.4-4.7a1.707,1.707,0,0,0-.841-.21,1.685,1.685,0,0,0-.83.21,1.737,1.737,0,0,0-.622.582A1.763,1.763,0,0,0-98.967-3.256Zm6.578-4.774h1.21v6.389a.808.808,0,0,0,.132.563.469.469,0,0,0,.33.121A1.848,1.848,0,0,0-90.3-1a1.715,1.715,0,0,0,.335-.11l.176.957a3.565,3.565,0,0,1-.627.187,3.164,3.164,0,0,1-.649.077,1.318,1.318,0,0,1-.968-.347,1.3,1.3,0,0,1-.352-.965ZM-88.176,0l-.011-5.753,1.2.011L-86.977,0Zm0-6.721-.011-1.309h1.2l.011,1.331ZM-80.619,0l-1.848-2.636-.946.9V0h-1.21V-8.03h1.21v5.077l2.662-2.756h1.3l-2.233,2.4L-79.332,0Zm8.085,0h-1.21V-3.186a1.912,1.912,0,0,0-.286-1.153.946.946,0,0,0-.8-.381,1.456,1.456,0,0,0-.66.173,2.036,2.036,0,0,0-.605.47,1.848,1.848,0,0,0-.385.687V0h-1.21V-8.03h1.21v3.475a2.426,2.426,0,0,1,.9-.91A2.411,2.411,0,0,1-74.349-5.8a1.9,1.9,0,0,1,.891.185,1.434,1.434,0,0,1,.556.507,2.145,2.145,0,0,1,.286.741,4.6,4.6,0,0,1,.083.888Zm2.255-2.215V-5.709h1.21v3.248a1.953,1.953,0,0,0,.281,1.15.949.949,0,0,0,.82.387,1.654,1.654,0,0,0,.665-.141,1.865,1.865,0,0,0,.594-.418,2.136,2.136,0,0,0,.435-.667V-5.709h1.21V-1.36a.444.444,0,0,0,.077.294.353.353,0,0,0,.253.1V0q-.187.033-.308.044t-.231.011a.839.839,0,0,1-.55-.18.68.68,0,0,1-.253-.464l-.022-.567a2.559,2.559,0,0,1-1,.944A2.875,2.875,0,0,1-68.453.11a1.628,1.628,0,0,1-1.364-.59A2.775,2.775,0,0,1-70.279-2.215ZM-57.464,0h-1.21V-3.186a2.061,2.061,0,0,0-.258-1.163.873.873,0,0,0-.764-.37,1.55,1.55,0,0,0-.7.173,2.151,2.151,0,0,0-.621.47,1.775,1.775,0,0,0-.4.687V0h-1.21V-5.709h1.1v1.154a2.259,2.259,0,0,1,.577-.659,2.733,2.733,0,0,1,.809-.43A2.967,2.967,0,0,1-59.18-5.8a1.75,1.75,0,0,1,.853.185,1.382,1.382,0,0,1,.528.507,2.122,2.122,0,0,1,.264.741,5.285,5.285,0,0,1,.072.888ZM-55.2,0l-.011-1.408.99.022L-54.208,0Zm5.566.11A2.4,2.4,0,0,1-50.7-.127,2.548,2.548,0,0,1-51.53-.77a3.028,3.028,0,0,1-.539-.935,3.218,3.218,0,0,1-.193-1.111,3.323,3.323,0,0,1,.2-1.155,3.037,3.037,0,0,1,.556-.951,2.566,2.566,0,0,1,.842-.644A2.471,2.471,0,0,1-49.588-5.8a2.256,2.256,0,0,1,1.215.324,2.737,2.737,0,0,1,.863.852V-5.709h1.067V-.151a2.418,2.418,0,0,1-.4,1.411,2.553,2.553,0,0,1-1.095.886,3.824,3.824,0,0,1-1.562.306,3.382,3.382,0,0,1-1.584-.33,3.233,3.233,0,0,1-1.067-.9l.682-.638a2.128,2.128,0,0,0,.853.7,2.624,2.624,0,0,0,1.117.242,2.385,2.385,0,0,0,.918-.175,1.5,1.5,0,0,0,.676-.54,1.587,1.587,0,0,0,.253-.924V-.99a2.165,2.165,0,0,1-.847.809A2.349,2.349,0,0,1-49.632.11Zm.4-.979a1.511,1.511,0,0,0,.528-.094,1.86,1.86,0,0,0,.467-.253,1.822,1.822,0,0,0,.368-.363,1.315,1.315,0,0,0,.22-.435V-3.52a1.971,1.971,0,0,0-.407-.655,1.937,1.937,0,0,0-.594-.434,1.572,1.572,0,0,0-.671-.154,1.461,1.461,0,0,0-.709.171,1.708,1.708,0,0,0-.534.451,2.147,2.147,0,0,0-.341.632,2.218,2.218,0,0,0-.121.726,1.952,1.952,0,0,0,.138.737,2.058,2.058,0,0,0,.38.61,1.7,1.7,0,0,0,.572.418A1.7,1.7,0,0,0-49.236-.869ZM-44.077,0l-.011-5.753,1.2.011L-42.878,0Zm0-6.721-.011-1.309h1.2l.011,1.331Zm6.754,6.446q-.154.077-.385.165a3.879,3.879,0,0,1-.522.154,2.706,2.706,0,0,1-.6.066,1.8,1.8,0,0,1-.693-.131,1.108,1.108,0,0,1-.512-.422,1.333,1.333,0,0,1-.193-.75V-4.774h-.759v-.935h.759V-7.6h1.21v1.892h1.254v.935h-1.254v3.193a.6.6,0,0,0,.192.437A.639.639,0,0,0-38.4-1a1.348,1.348,0,0,0,.484-.088q.231-.088.341-.143Zm6.9.275h-1.21V-3.186a1.912,1.912,0,0,0-.286-1.153.946.946,0,0,0-.8-.381,1.456,1.456,0,0,0-.66.173,2.036,2.036,0,0,0-.6.47,1.848,1.848,0,0,0-.385.687V0h-1.21V-8.03h1.21v3.475a2.425,2.425,0,0,1,.9-.91A2.411,2.411,0,0,1-32.241-5.8a1.9,1.9,0,0,1,.891.185,1.434,1.434,0,0,1,.556.507,2.145,2.145,0,0,1,.286.741,4.6,4.6,0,0,1,.083.888Zm2.255-2.215V-5.709h1.21v3.248a1.953,1.953,0,0,0,.28,1.15.949.949,0,0,0,.82.387,1.654,1.654,0,0,0,.665-.141,1.865,1.865,0,0,0,.594-.418,2.136,2.136,0,0,0,.434-.667V-5.709h1.21V-1.36a.444.444,0,0,0,.077.294.353.353,0,0,0,.253.1V0q-.187.033-.308.044t-.231.011a.839.839,0,0,1-.55-.18.68.68,0,0,1-.253-.464l-.022-.567a2.559,2.559,0,0,1-1,.944A2.875,2.875,0,0,1-26.345.11a1.628,1.628,0,0,1-1.364-.59A2.775,2.775,0,0,1-28.171-2.215ZM-17.413.11A2.312,2.312,0,0,1-18.607-.2a2.315,2.315,0,0,1-.842-.842V0h-1.067V-8.03h1.21v3.421a2.648,2.648,0,0,1,.852-.869,2.229,2.229,0,0,1,1.2-.319,2.278,2.278,0,0,1,1.045.24,2.463,2.463,0,0,1,.809.654,3.051,3.051,0,0,1,.517.948A3.5,3.5,0,0,1-14.7-2.822a3.155,3.155,0,0,1-.2,1.133,2.862,2.862,0,0,1-.577.937,2.766,2.766,0,0,1-.863.632A2.5,2.5,0,0,1-17.413.11Zm-.319-1.034a1.666,1.666,0,0,0,.726-.157,1.874,1.874,0,0,0,.572-.417,1.772,1.772,0,0,0,.369-.607,2.075,2.075,0,0,0,.126-.716,2.168,2.168,0,0,0-.214-.954,1.83,1.83,0,0,0-.6-.716,1.508,1.508,0,0,0-.891-.271,1.442,1.442,0,0,0-.682.168,2.019,2.019,0,0,0-.567.445,2.694,2.694,0,0,0-.412.613v1.5a1.174,1.174,0,0,0,.231.45,1.75,1.75,0,0,0,.385.347,2.053,2.053,0,0,0,.473.233A1.491,1.491,0,0,0-17.732-.924ZM-12.749,0l-.011-1.408.99.022L-11.759,0Zm3.3,0L-9.46-5.753l1.2.011L-8.25,0Zm0-6.721L-9.46-8.03h1.2L-8.25-6.7ZM-3.322.11a3,3,0,0,1-1.21-.234,2.792,2.792,0,0,1-.93-.648,2.859,2.859,0,0,1-.594-.943,3.082,3.082,0,0,1-.2-1.117,3.2,3.2,0,0,1,.2-1.139,2.774,2.774,0,0,1,.594-.948,2.817,2.817,0,0,1,.935-.643A3.044,3.044,0,0,1-3.311-5.8,3.044,3.044,0,0,1-2.1-5.563a2.817,2.817,0,0,1,.935.643,2.845,2.845,0,0,1,.6.948A3.125,3.125,0,0,1-.352-2.833,3.01,3.01,0,0,1-.561-1.715a2.935,2.935,0,0,1-.6.943A2.778,2.778,0,0,1-2.1-.124,3.073,3.073,0,0,1-3.322.11Zm-1.7-2.943a2.044,2.044,0,0,0,.231.976,1.809,1.809,0,0,0,.616.683,1.615,1.615,0,0,0,.858.26,1.635,1.635,0,0,0,.875-.266,1.825,1.825,0,0,0,.621-.694,2.151,2.151,0,0,0,.242-.971,2.138,2.138,0,0,0-.242-.976,1.88,1.88,0,0,0-.621-.694,1.46,1.46,0,0,0-.864-.249,1.539,1.539,0,0,0-.869.255,1.853,1.853,0,0,0-.616.689A2.067,2.067,0,0,0-5.027-2.833Z"
			transform="translate(1140 370)" />
	</g>

	<g class="fade-down d-5 small">
		<path id="f2"
			d="M-123.464,0h-1.21V-3.186a2.061,2.061,0,0,0-.258-1.163.873.873,0,0,0-.765-.37,1.55,1.55,0,0,0-.7.173,2.151,2.151,0,0,0-.621.47,1.775,1.775,0,0,0-.4.687V0h-1.21V-5.709h1.1v1.154a2.259,2.259,0,0,1,.578-.659,2.733,2.733,0,0,1,.808-.43,2.967,2.967,0,0,1,.957-.153,1.75,1.75,0,0,1,.853.185,1.382,1.382,0,0,1,.528.507,2.122,2.122,0,0,1,.264.741,5.284,5.284,0,0,1,.072.888Zm4.884.11a3,3,0,0,1-1.21-.234,2.792,2.792,0,0,1-.93-.648,2.859,2.859,0,0,1-.594-.943,3.082,3.082,0,0,1-.2-1.117,3.2,3.2,0,0,1,.2-1.139,2.774,2.774,0,0,1,.594-.948,2.817,2.817,0,0,1,.935-.643,3.044,3.044,0,0,1,1.215-.234,3.044,3.044,0,0,1,1.215.234,2.817,2.817,0,0,1,.935.643,2.845,2.845,0,0,1,.6.948,3.125,3.125,0,0,1,.209,1.139,3.01,3.01,0,0,1-.209,1.117,2.935,2.935,0,0,1-.6.943,2.778,2.778,0,0,1-.935.648A3.073,3.073,0,0,1-118.58.11Zm-1.705-2.943a2.044,2.044,0,0,0,.231.976,1.809,1.809,0,0,0,.616.683,1.615,1.615,0,0,0,.858.26,1.635,1.635,0,0,0,.874-.266,1.825,1.825,0,0,0,.621-.694,2.151,2.151,0,0,0,.242-.971,2.138,2.138,0,0,0-.242-.976,1.88,1.88,0,0,0-.621-.694,1.46,1.46,0,0,0-.864-.249,1.539,1.539,0,0,0-.869.255,1.853,1.853,0,0,0-.616.689A2.067,2.067,0,0,0-120.285-2.833Zm9.768,2.558q-.154.077-.385.165a3.879,3.879,0,0,1-.522.154,2.706,2.706,0,0,1-.6.066,1.8,1.8,0,0,1-.693-.131,1.108,1.108,0,0,1-.511-.422,1.333,1.333,0,0,1-.192-.75V-4.774h-.759v-.935h.759V-7.6h1.21v1.892h1.254v.935h-1.254v3.193a.6.6,0,0,0,.192.437A.639.639,0,0,0-111.6-1a1.348,1.348,0,0,0,.484-.088q.231-.088.341-.143Zm4.939-1.392a1.523,1.523,0,0,1,.313-.954,2.013,2.013,0,0,1,.864-.632,3.373,3.373,0,0,1,1.276-.223,5.792,5.792,0,0,1,.786.055,3.089,3.089,0,0,1,.71.176v-.361a1.206,1.206,0,0,0-.363-.931,1.485,1.485,0,0,0-1.045-.336,2.449,2.449,0,0,0-.913.17,5.515,5.515,0,0,0-.913.479l-.407-.814a4.6,4.6,0,0,1,1.15-.572,3.921,3.921,0,0,1,1.215-.187,2.609,2.609,0,0,1,1.82.6,2.194,2.194,0,0,1,.666,1.713V-1.36a.468.468,0,0,0,.071.294.333.333,0,0,0,.248.1V0a2.655,2.655,0,0,1-.3.044q-.132.011-.22.011a.819.819,0,0,1-.583-.187.72.72,0,0,1-.231-.44l-.033-.33a2.48,2.48,0,0,1-.957.748A2.829,2.829,0,0,1-103.6.11a2.186,2.186,0,0,1-1.023-.234,1.779,1.779,0,0,1-.7-.638A1.667,1.667,0,0,1-105.578-1.667Zm3.663.345a1.392,1.392,0,0,0,.209-.281.533.533,0,0,0,.077-.249V-2.5a3.427,3.427,0,0,0-.649-.179,3.9,3.9,0,0,0-.671-.059,1.987,1.987,0,0,0-1.072.26.8.8,0,0,0-.412.714.906.906,0,0,0,.137.476,1.019,1.019,0,0,0,.4.368,1.334,1.334,0,0,0,.644.141,1.952,1.952,0,0,0,.759-.151A1.638,1.638,0,0,0-101.915-1.322ZM-96.646,0l-2.189-5.709h1.254l1.639,4.6,1.639-4.6h1.166L-95.326,0Zm4.719-1.667a1.523,1.523,0,0,1,.313-.954,2.013,2.013,0,0,1,.864-.632,3.373,3.373,0,0,1,1.276-.223,5.792,5.792,0,0,1,.786.055,3.089,3.089,0,0,1,.71.176v-.361a1.206,1.206,0,0,0-.363-.931,1.485,1.485,0,0,0-1.045-.336,2.449,2.449,0,0,0-.913.17,5.515,5.515,0,0,0-.913.479l-.407-.814a4.6,4.6,0,0,1,1.15-.572A3.921,3.921,0,0,1-89.254-5.8a2.609,2.609,0,0,1,1.82.6,2.194,2.194,0,0,1,.666,1.713V-1.36a.468.468,0,0,0,.071.294.333.333,0,0,0,.248.1V0a2.655,2.655,0,0,1-.3.044q-.132.011-.22.011a.819.819,0,0,1-.583-.187.72.72,0,0,1-.231-.44l-.033-.33a2.48,2.48,0,0,1-.957.748A2.829,2.829,0,0,1-89.947.11,2.186,2.186,0,0,1-90.97-.124a1.779,1.779,0,0,1-.7-.638A1.667,1.667,0,0,1-91.927-1.667Zm3.663.345a1.392,1.392,0,0,0,.209-.281.533.533,0,0,0,.077-.249V-2.5a3.427,3.427,0,0,0-.649-.179,3.9,3.9,0,0,0-.671-.059,1.987,1.987,0,0,0-1.072.26.8.8,0,0,0-.412.714.906.906,0,0,0,.137.476,1.019,1.019,0,0,0,.4.368,1.334,1.334,0,0,0,.644.141,1.952,1.952,0,0,0,.759-.151A1.638,1.638,0,0,0-88.264-1.322ZM-84.392,0-84.4-5.753l1.2.011L-83.193,0Zm0-6.721L-84.4-8.03h1.2l.011,1.331Zm3.564-1.309h1.21v6.389a.808.808,0,0,0,.132.563.469.469,0,0,0,.33.121A1.848,1.848,0,0,0-78.744-1a1.715,1.715,0,0,0,.335-.11l.176.957a3.565,3.565,0,0,1-.627.187,3.164,3.164,0,0,1-.649.077,1.318,1.318,0,0,1-.968-.347,1.3,1.3,0,0,1-.352-.965Zm3.784,6.363a1.523,1.523,0,0,1,.313-.954,2.013,2.013,0,0,1,.864-.632,3.373,3.373,0,0,1,1.276-.223,5.792,5.792,0,0,1,.786.055,3.089,3.089,0,0,1,.71.176v-.361a1.206,1.206,0,0,0-.363-.931A1.485,1.485,0,0,0-74.5-4.873a2.449,2.449,0,0,0-.913.17,5.515,5.515,0,0,0-.913.479l-.407-.814a4.6,4.6,0,0,1,1.15-.572A3.921,3.921,0,0,1-74.371-5.8a2.609,2.609,0,0,1,1.82.6,2.194,2.194,0,0,1,.666,1.713V-1.36a.468.468,0,0,0,.071.294.333.333,0,0,0,.248.1V0a2.655,2.655,0,0,1-.3.044q-.132.011-.22.011a.819.819,0,0,1-.583-.187.72.72,0,0,1-.231-.44L-72.93-.9a2.48,2.48,0,0,1-.957.748A2.829,2.829,0,0,1-75.064.11a2.186,2.186,0,0,1-1.023-.234,1.779,1.779,0,0,1-.7-.638A1.667,1.667,0,0,1-77.044-1.667Zm3.663.345a1.392,1.392,0,0,0,.209-.281.533.533,0,0,0,.077-.249V-2.5a3.427,3.427,0,0,0-.649-.179,3.9,3.9,0,0,0-.671-.059,1.987,1.987,0,0,0-1.072.26.8.8,0,0,0-.412.714.906.906,0,0,0,.137.476,1.019,1.019,0,0,0,.4.368,1.334,1.334,0,0,0,.644.141,1.952,1.952,0,0,0,.759-.151A1.638,1.638,0,0,0-73.381-1.322ZM-66.418.11A2.312,2.312,0,0,1-67.612-.2a2.315,2.315,0,0,1-.841-.842V0H-69.52V-8.03h1.21v3.421a2.648,2.648,0,0,1,.853-.869,2.229,2.229,0,0,1,1.2-.319,2.278,2.278,0,0,1,1.045.24A2.463,2.463,0,0,1-64.4-4.9a3.051,3.051,0,0,1,.517.948A3.5,3.5,0,0,1-63.7-2.822a3.155,3.155,0,0,1-.2,1.133,2.862,2.862,0,0,1-.577.937,2.766,2.766,0,0,1-.864.632A2.5,2.5,0,0,1-66.418.11Zm-.319-1.034a1.666,1.666,0,0,0,.726-.157,1.874,1.874,0,0,0,.572-.417,1.772,1.772,0,0,0,.368-.607,2.075,2.075,0,0,0,.127-.716,2.168,2.168,0,0,0-.215-.954,1.83,1.83,0,0,0-.6-.716,1.508,1.508,0,0,0-.891-.271,1.442,1.442,0,0,0-.682.168,2.019,2.019,0,0,0-.566.445,2.694,2.694,0,0,0-.413.613v1.5a1.174,1.174,0,0,0,.231.45,1.75,1.75,0,0,0,.385.347,2.053,2.053,0,0,0,.473.233A1.491,1.491,0,0,0-66.737-.924ZM-61.7-8.03h1.21v6.389a.808.808,0,0,0,.132.563.469.469,0,0,0,.33.121A1.848,1.848,0,0,0-59.615-1a1.715,1.715,0,0,0,.336-.11l.176.957a3.565,3.565,0,0,1-.627.187,3.164,3.164,0,0,1-.649.077,1.318,1.318,0,0,1-.968-.347A1.3,1.3,0,0,1-61.7-1.2ZM-54.89.11a3.04,3.04,0,0,1-1.215-.235,2.878,2.878,0,0,1-.94-.644,2.909,2.909,0,0,1-.611-.939,2.981,2.981,0,0,1-.215-1.13A2.969,2.969,0,0,1-57.5-4.312a2.9,2.9,0,0,1,1.045-1.077A2.968,2.968,0,0,1-54.879-5.8a2.88,2.88,0,0,1,1.556.408,2.868,2.868,0,0,1,1.017,1.073,2.93,2.93,0,0,1,.363,1.427q0,.131-.011.245t-.022.191h-4.609a1.767,1.767,0,0,0,.28.874,1.774,1.774,0,0,0,.633.586,1.685,1.685,0,0,0,.825.212,1.86,1.86,0,0,0,.919-.242,1.249,1.249,0,0,0,.588-.638l1.034.3a2.208,2.208,0,0,1-.566.754,2.827,2.827,0,0,1-.9.528A3.191,3.191,0,0,1-54.89.11Zm-1.727-3.366h3.476a1.731,1.731,0,0,0-.281-.857,1.783,1.783,0,0,0-.627-.582,1.707,1.707,0,0,0-.841-.21,1.685,1.685,0,0,0-.831.21,1.737,1.737,0,0,0-.621.582A1.763,1.763,0,0,0-56.617-3.256ZM-46.1,0V-4.675h-.77V-5.61h.77v-.231a3.037,3.037,0,0,1,.226-1.221,1.81,1.81,0,0,1,.638-.8,1.689,1.689,0,0,1,.974-.281,2.609,2.609,0,0,1,.693.094,3.113,3.113,0,0,1,.649.259l-.264.9a1.311,1.311,0,0,0-.39-.17,1.675,1.675,0,0,0-.435-.06.755.755,0,0,0-.649.319,1.562,1.562,0,0,0-.231.924v.264h1.474v.935h-1.474V0Zm6.963.11a3,3,0,0,1-1.21-.234,2.792,2.792,0,0,1-.93-.648,2.859,2.859,0,0,1-.594-.943,3.082,3.082,0,0,1-.2-1.117,3.2,3.2,0,0,1,.2-1.139,2.774,2.774,0,0,1,.594-.948,2.817,2.817,0,0,1,.935-.643A3.044,3.044,0,0,1-39.127-5.8a3.044,3.044,0,0,1,1.215.234,2.817,2.817,0,0,1,.935.643,2.845,2.845,0,0,1,.6.948,3.125,3.125,0,0,1,.209,1.139,3.01,3.01,0,0,1-.209,1.117,2.935,2.935,0,0,1-.6.943,2.778,2.778,0,0,1-.935.648A3.073,3.073,0,0,1-39.138.11Zm-1.7-2.943a2.044,2.044,0,0,0,.231.976A1.809,1.809,0,0,0-40-1.173a1.615,1.615,0,0,0,.858.26,1.635,1.635,0,0,0,.875-.266,1.825,1.825,0,0,0,.622-.694,2.151,2.151,0,0,0,.242-.971,2.138,2.138,0,0,0-.242-.976,1.88,1.88,0,0,0-.622-.694,1.46,1.46,0,0,0-.863-.249A1.539,1.539,0,0,0-40-4.508a1.853,1.853,0,0,0-.616.689A2.067,2.067,0,0,0-40.843-2.833Zm9.889-1.875a2.576,2.576,0,0,0-1.248.319,1.736,1.736,0,0,0-.776.869V0h-1.21V-5.709h1.122v1.243a2.607,2.607,0,0,1,.781-.952,1.9,1.9,0,0,1,1.023-.39h.181a.65.65,0,0,1,.126.011ZM-20.636,0h-1.21V-3.186a1.912,1.912,0,0,0-.286-1.153.946.946,0,0,0-.8-.381,1.456,1.456,0,0,0-.66.173,2.036,2.036,0,0,0-.605.47,1.848,1.848,0,0,0-.385.687V0H-25.8V-8.03h1.21v3.475a2.425,2.425,0,0,1,.9-.91A2.411,2.411,0,0,1-22.451-5.8a1.9,1.9,0,0,1,.891.185A1.434,1.434,0,0,1-21-5.105a2.145,2.145,0,0,1,.286.741,4.6,4.6,0,0,1,.083.888Zm2.321,0-.011-5.753,1.2.011L-17.116,0Zm0-6.721-.011-1.309h1.2l.011,1.331Zm6.787,2.013a2.576,2.576,0,0,0-1.248.319,1.736,1.736,0,0,0-.776.869V0h-1.21V-5.709h1.122v1.243a2.607,2.607,0,0,1,.781-.952,1.9,1.9,0,0,1,1.023-.39h.181a.65.65,0,0,1,.127.011ZM-7.238.11A3.04,3.04,0,0,1-8.454-.125a2.878,2.878,0,0,1-.941-.644A2.909,2.909,0,0,1-10-1.708a2.981,2.981,0,0,1-.214-1.13,2.969,2.969,0,0,1,.374-1.474A2.9,2.9,0,0,1-8.8-5.389,2.968,2.968,0,0,1-7.227-5.8a2.88,2.88,0,0,1,1.556.408A2.868,2.868,0,0,1-4.653-4.316,2.93,2.93,0,0,1-4.29-2.889q0,.131-.011.245t-.022.191H-8.932a1.767,1.767,0,0,0,.281.874,1.774,1.774,0,0,0,.632.586,1.685,1.685,0,0,0,.825.212,1.86,1.86,0,0,0,.919-.242,1.249,1.249,0,0,0,.589-.638l1.034.3a2.208,2.208,0,0,1-.567.754,2.827,2.827,0,0,1-.9.528A3.191,3.191,0,0,1-7.238.11ZM-8.965-3.256h3.476a1.731,1.731,0,0,0-.28-.857A1.783,1.783,0,0,0-6.4-4.7a1.707,1.707,0,0,0-.842-.21,1.685,1.685,0,0,0-.83.21,1.737,1.737,0,0,0-.622.582A1.763,1.763,0,0,0-8.965-3.256Zm6.809.484-.011-5.093h1.2l.011,5.082Zm0,2.772-.011-1.507,1.2.011L-.957,0Z"
			transform="translate(981 370)" />
	</g>
</svg>