<svg xmlns="http://www.w3.org/2000/svg" xmlns:xlink="http://www.w3.org/1999/xlink" width="1200" height="132" viewBox="0 0 1200 132">
	<defs>
		<clipPath id="clip-ranking-banner">
			<rect width="1200" height="132"/>
		</clipPath>
	</defs>
	<style>
		#background {
			visibility: hidden;
			transform: scaleY(0);
			transform-origin: center;
			fill: transparent;
			animation: background 0.5s cubic-bezier(0.25, 1, 0.5, 1) 0.8s 1 forwards;
		}

		@keyframes background {
			0% {
				fill: #fff;
				transform: scaleY(0);
			}

			100% {
				visibility: visible;
				fill: #fff;
				transform: scaleY(1);
			}
		}

		#blobs {
			opacity: 0;
			animation: show 1s ease-out 1.8s 1 forwards;
		}

		#blobs > path {
			--scale: 2;
			fill: transparent;
			stroke: #353535;
			stroke-width: 0.3px;
			transform: scale(var(--scale));
			animation: blob-rotate 10s linear 0s infinite forwards;
				
		}

		#blobs > path.speed-2 {
			animation-duration: 15s;
		}

		#blobs > path.speed-3 {
			animation-duration: 20s;
		}

		#blobs > path.speed-4 {
			animation-duration: 25s;
		}

		#blobs > path.speed-5 {
			animation-duration: 30s;
		}

		#blobs > path.rev {
			animation-direction: reverse;
		}

		@keyframes blob-rotate {
			0% {
				transform: scale(var(--scale)) rotate(0deg);
			}

			100% {
				transform: scale(var(--scale)) rotate(360deg);
			}
		}

		@keyframes show {
			0% {
				opacity: 0;
			}

			100% {
				opacity: 1;
			}
		}

		.fade-up {
			--amount: 60px;
			opacity: 0;
			transform: translateY(var(--amount));
			animation: fade-up 0.4s cubic-bezier(0.25, 1, 0.5, 1) 1.3s 1 forwards;
		}

		.fade-down {
			--amount: -60px;
			opacity: 0;
			transform: translateY(var(--amount));
			animation: fade-down 0.4s cubic-bezier(0.25, 1, 0.5, 1) 1.3s 1 forwards;
		}

		.fade-right {
			--amount: 60px;
			opacity: 0;
			transform: translateX(var(--amount));
			animation: fade-right 0.4s cubic-bezier(0.25, 1, 0.5, 1) 1.3s 1 forwards;
		}

		.small {
			--amount: 20px;
		}

		.fade-down.small {
			--amount: -20px;
		}

		.fade-scale {
			transform: scaleX(0);
			transform-origin: 54px 0;
			animation: fade-scale 0.4s cubic-bezier(0.25, 1, 0.5, 1) 1.3s 1 forwards;
		}

		.d-05 {
			animation-delay: 1.35s;
		}

		.d-1 {
			animation-delay: 1.4s;
		}

		.d-15 {
			animation-delay: 1.45s;
		}

		.d-2 {
			animation-delay: 1.5s;
		}

		.d-25 {
			animation-delay: 1.55s;
		}

		.d-3 {
			animation-delay: 1.6s;
		}

		.d-35 {
			animation-delay: 1.65s;
		}

		.d-4 {
			animation-delay: 1.7s;
		}

		.d-45 {
			animation-delay: 1.75s;
		}

		.d-5 {
			animation-delay: 1.8s;
		}

		.d-55 {
			animation-delay: 1.85s;
		}

		.d-6 {
			animation-delay: 1.9s;
		}

		.d-6 {
			animation-delay: 1.95s;
		}

		.d-7 {
			animation-delay: 2s;
		}

		@keyframes fade-up {
			0% {
				opacity: 0;
				transform: translateY(var(--amount));
			}

			10% {
				transform: translateY(var(--amount));
			}

			30% {
				opacity: 1;
			}

			100% {
				opacity: 1;
				transform: translateY(0);
			}
		}

		@keyframes fade-down {
			0% {
				opacity: 0;
				transform: translateY(var(--amount));
			}

			10% {
				transform: translateY(var(--amount));
			}

			30% {
				opacity: 1;
			}

			100% {
				opacity: 1;
				transform: translateY(0);
			}
		}

		@keyframes fade-right {
			0% {
				opacity: 0;
				transform: translateX(var(--amount));
			}

			10% {
				transform: translateX(var(--amount));
			}

			30% {
				opacity: 1;
			}

			100% {
				opacity: 1;
				transform: translateX(0);
			}
		}

		@keyframes fade-scale {
			0% {
				transform: scaleX(0);
			}

			100% {
				transform: scaleX(1);
			}
		}
	</style>
	<g id="ranking-banner" clip-path="url(#clip-ranking-banner)">
		<rect id="background" width="1200" height="132" fill="#fff"/>

		<g id="blobs" transform="translate(20 10)">
			<path class="speed-0" d="M45.2,-35.1C56.6,-21.8,62.3,-3.2,60.4,17.3C58.6,37.8,49.2,60.2,32.8,68.1C16.4,76,-7,69.4,-29.8,59.4C-52.5,49.3,-74.8,35.7,-80.3,16.8C-85.9,-2.1,-74.7,-26.4,-58.6,-40.8C-42.4,-55.2,-21.2,-59.7,-2.1,-58C16.9,-56.3,33.9,-48.4,45.2,-35.1Z" />
			<path class="speed-3" d="M64.2,-47.9C78.1,-33.9,80.6,-7.4,74.2,15.5C67.8,38.5,52.6,58,32.8,67C13.1,76.1,-11.1,74.7,-33.5,65.5C-56,56.3,-76.7,39.2,-80.5,19.3C-84.3,-0.6,-71.2,-23.5,-55,-38C-38.7,-52.6,-19.4,-58.8,2.9,-61.1C25.2,-63.4,50.4,-61.8,64.2,-47.9Z" />
			<path class="speed-1 rev" d="M62.6,-50C78.1,-30.5,85.5,-4.7,80.5,19C75.6,42.6,58.4,64,35.9,75.1C13.3,86.2,-14.5,87,-30.1,74.7C-45.6,62.5,-49,37.2,-53.7,13.3C-58.4,-10.7,-64.3,-33.3,-55.5,-51.3C-46.8,-69.2,-23.4,-82.5,0.1,-82.6C23.6,-82.6,47.1,-69.5,62.6,-50Z" />
			<path class="speed-2" d="M53.5,-43.7C62.2,-31.6,57.4,-9.8,52.8,12.8C48.3,35.5,44,58.9,29.5,68.7C15.1,78.5,-9.5,74.6,-28.7,63.8C-47.8,52.9,-61.6,35,-63.9,16.9C-66.2,-1.3,-57.2,-19.8,-44.6,-32.8C-32,-45.7,-16,-53.1,3.2,-55.6C22.4,-58.2,44.7,-55.8,53.5,-43.7Z" />
			<path class="speed-4 rev" d="M51.3,-42.8C64,-24.9,70.3,-3.7,66.1,15.3C62,34.3,47.3,51,30.6,56.2C13.9,61.4,-4.8,55.1,-25.3,47.3C-45.8,39.4,-68.1,30,-75.9,12.5C-83.7,-5,-77.1,-30.6,-62,-49C-46.9,-67.4,-23.5,-78.7,-2.1,-77C19.2,-75.3,38.5,-60.7,51.3,-42.8Z" />
			<path class="speed-5" d="M51.7,-72.3C64.9,-61.5,72.1,-43.6,74.1,-26.7C76,-9.7,72.7,6.4,66.3,20.1C59.9,33.8,50.4,45,38.8,54.3C27.2,63.6,13.6,71.1,-0.1,71.3C-13.9,71.4,-27.7,64.3,-42.1,55.9C-56.6,47.5,-71.6,37.8,-78.5,23.8C-85.4,9.8,-84.2,-8.6,-77.3,-23.7C-70.5,-38.8,-57.9,-50.7,-44.1,-61.2C-30.3,-71.8,-15.1,-81.1,2,-83.9C19.2,-86.7,38.5,-83.1,51.7,-72.3Z" />
			<path class="speed-3 rev" d="M46.5,-66.6C58.4,-55.4,64.9,-39.3,71.9,-22.3C78.9,-5.3,86.4,12.6,83.1,28.2C79.7,43.8,65.4,57.1,49.8,64.2C34.1,71.2,17,72,0.6,71.2C-15.9,70.5,-31.9,68.2,-42.4,59.4C-52.8,50.7,-57.8,35.5,-63.1,20.3C-68.4,5,-74,-10.5,-72.8,-26.6C-71.6,-42.7,-63.5,-59.4,-50.2,-70.2C-36.9,-80.9,-18.5,-85.6,-0.6,-84.8C17.3,-84,34.6,-77.8,46.5,-66.6Z" />
		</g>

		<g class="fade-up">
			<path id="Path_38" data-name="Path 38" d="M50.039,7.619,46.7.858a1.609,1.609,0,0,0-2.885,0L40.478,7.619l-7.4,1.061a1.647,1.647,0,0,0-.905,2.8l5.374,5.233-1.273,7.369a1.652,1.652,0,0,0,2.376,1.725L45.287,22.3l6.591,3.451a1.649,1.649,0,0,0,2.376-1.725l-1.273-7.369,5.374-5.176a1.654,1.654,0,0,0-.905-2.8l-7.4-1.061ZM36.207,36.174A4.521,4.521,0,0,0,31.681,40.7V67.856a4.521,4.521,0,0,0,4.526,4.526h18.1a4.521,4.521,0,0,0,4.526-4.526V40.7a4.521,4.521,0,0,0-4.526-4.526ZM4.526,45.226A4.521,4.521,0,0,0,0,49.752v18.1a4.521,4.521,0,0,0,4.526,4.526h18.1a4.521,4.521,0,0,0,4.526-4.526v-18.1a4.521,4.521,0,0,0-4.526-4.526ZM63.362,58.8v9.052a4.521,4.521,0,0,0,4.526,4.526h18.1a4.521,4.521,0,0,0,4.526-4.526V58.8a4.521,4.521,0,0,0-4.526-4.526h-18.1A4.521,4.521,0,0,0,63.362,58.8Z" transform="translate(60 30.038)"/>
		</g>

		<g class="fade-right d-1">
			<path id="Path_42" data-name="Path 42" d="M16.308-15.957l-6.1.054V0h-3.7l.027-15.957L.378-15.9.405-19.17h15.93ZM28.674.135a8.832,8.832,0,0,1-3.82-.81,9.026,9.026,0,0,1-2.943-2.2,10.331,10.331,0,0,1-1.9-3.132,9.819,9.819,0,0,1-.675-3.578,9.534,9.534,0,0,1,.715-3.658,10.353,10.353,0,0,1,1.971-3.105,9.347,9.347,0,0,1,2.97-2.16,8.83,8.83,0,0,1,3.766-.8,8.53,8.53,0,0,1,3.793.837,9.117,9.117,0,0,1,2.93,2.241,10.7,10.7,0,0,1,1.89,3.132,9.713,9.713,0,0,1,.675,3.564,9.624,9.624,0,0,1-.7,3.632,10.141,10.141,0,0,1-1.958,3.1,9.173,9.173,0,0,1-2.97,2.147A8.894,8.894,0,0,1,28.674.135Zm-5.562-9.72a7.713,7.713,0,0,0,.378,2.4,6.58,6.58,0,0,0,1.094,2.066,5.214,5.214,0,0,0,1.755,1.431,5.156,5.156,0,0,0,2.362.526,5.087,5.087,0,0,0,2.4-.553A5.193,5.193,0,0,0,32.859-5.2a6.893,6.893,0,0,0,1.066-2.079,7.586,7.586,0,0,0,.365-2.309,7.349,7.349,0,0,0-.391-2.389,6.835,6.835,0,0,0-1.107-2.052,5.214,5.214,0,0,0-1.755-1.431,5.1,5.1,0,0,0-2.336-.526,5.066,5.066,0,0,0-2.417.554,5.3,5.3,0,0,0-1.741,1.471,6.75,6.75,0,0,0-1.066,2.052A7.543,7.543,0,0,0,23.112-9.585ZM43.119,0V-19.17h8.127a5.468,5.468,0,0,1,2.43.54,6.252,6.252,0,0,1,1.931,1.458,6.965,6.965,0,0,1,1.283,2.052,5.78,5.78,0,0,1,.432,2.322,6.72,6.72,0,0,1-.743,3.065,6.219,6.219,0,0,1-2.066,2.376,5.566,5.566,0,0,1-3.132.931l-4.563-.027L46.845,0Zm3.726-9.693h4.32a2.069,2.069,0,0,0,1.215-.378,2.606,2.606,0,0,0,.864-1.093,3.99,3.99,0,0,0,.324-1.661A3.59,3.59,0,0,0,53.2-14.5a2.578,2.578,0,0,0-.945-1.053A2.383,2.383,0,0,0,51-15.9l-4.185-.027Z" transform="translate(207 62.42)"/>
		</g>

		<line id="line" class="fade-scale d-15" x1="207" y1="77" x2="340" y2="77" fill="none" stroke="#000" stroke-width="3"/>
		
		<g class="fade-up d-3 small">
			<path id="Path_41" data-name="Path 41" d="M7.455-7.86a2.559,2.559,0,0,0-.382-.285A4.218,4.218,0,0,0,6.4-8.49a7.253,7.253,0,0,0-.863-.292A3.558,3.558,0,0,0,4.59-8.91,2.133,2.133,0,0,0,3.323-8.6a1.029,1.029,0,0,0-.428.88.9.9,0,0,0,.27.687,2.183,2.183,0,0,0,.81.433q.54.179,1.35.388a9.485,9.485,0,0,1,1.823.619,2.938,2.938,0,0,1,1.185.955,2.669,2.669,0,0,1,.412,1.56A3.114,3.114,0,0,1,8.43-1.619a2.612,2.612,0,0,1-.87.978A3.884,3.884,0,0,1,6.3-.1,6.323,6.323,0,0,1,4.8.075,7.805,7.805,0,0,1,3.21-.09,8.352,8.352,0,0,1,1.68-.562,7.02,7.02,0,0,1,.33-1.305L1.245-3.09a2.973,2.973,0,0,0,.48.352,6.463,6.463,0,0,0,.84.435,7.011,7.011,0,0,0,1.08.367,4.753,4.753,0,0,0,1.185.15,2.359,2.359,0,0,0,1.275-.282.9.9,0,0,0,.435-.8A.894.894,0,0,0,6.2-3.615a3.18,3.18,0,0,0-.96-.471q-.615-.2-1.455-.441A8.947,8.947,0,0,1,2.1-5.161a2.484,2.484,0,0,1-1-.889,2.529,2.529,0,0,1-.33-1.344,3.113,3.113,0,0,1,.517-1.83,3.226,3.226,0,0,1,1.4-1.12,4.92,4.92,0,0,1,1.965-.381,5.89,5.89,0,0,1,1.418.165,6.976,6.976,0,0,1,1.253.435,7.4,7.4,0,0,1,1.05.585Zm12.03-1.005-3.39.03V0H14.04l.015-8.865-3.42.03.015-1.815H19.5Zm4.47-1.785h2.1L29.97,0H27.84l-.885-2.655h-3.91L22.155,0h-2.13ZM26.47-4.11,25-8.505,23.532-4.11ZM32.37,0V-10.65h4.71a3.085,3.085,0,0,1,1.358.3,3.446,3.446,0,0,1,1.08.81,3.747,3.747,0,0,1,.705,1.14,3.5,3.5,0,0,1,.247,1.29,3.678,3.678,0,0,1-.232,1.3,3.224,3.224,0,0,1-.667,1.088,3.052,3.052,0,0,1-1.02.72L40.98,0H38.7L36.51-3.57H34.44V0Zm2.07-5.385h2.6a1.1,1.1,0,0,0,.69-.233,1.638,1.638,0,0,0,.48-.622,2.052,2.052,0,0,0,.18-.87A1.825,1.825,0,0,0,38.175-8a1.754,1.754,0,0,0-.533-.607,1.2,1.2,0,0,0-.7-.225H34.44ZM43.575,0V-10.65h4.71a3.085,3.085,0,0,1,1.358.3,3.446,3.446,0,0,1,1.08.81,3.747,3.747,0,0,1,.705,1.14,3.5,3.5,0,0,1,.247,1.29,3.678,3.678,0,0,1-.232,1.3,3.224,3.224,0,0,1-.667,1.088,3.052,3.052,0,0,1-1.02.72L52.185,0H49.9l-2.19-3.57h-2.07V0Zm2.07-5.385h2.6a1.1,1.1,0,0,0,.69-.233,1.638,1.638,0,0,0,.48-.622,2.052,2.052,0,0,0,.18-.87A1.825,1.825,0,0,0,49.38-8a1.754,1.754,0,0,0-.533-.607,1.2,1.2,0,0,0-.7-.225H45.645Zm16.515,3.6L62.175,0h-7.38L54.78-10.65h7.245l.015,1.815-5.22-.03.03,2.6,4.47.015.015,1.665H56.82l.03,2.775ZM65.025,0V-10.65h3.87a5.5,5.5,0,0,1,2.91.713,4.514,4.514,0,0,1,1.755,1.92,6.06,6.06,0,0,1,.585,2.677A5.87,5.87,0,0,1,73.5-2.52,4.566,4.566,0,0,1,71.677-.66,5.6,5.6,0,0,1,68.895,0ZM72.06-5.34a4.193,4.193,0,0,0-.375-1.823,2.876,2.876,0,0,0-1.08-1.23,3.153,3.153,0,0,0-1.71-.443H67.1v7.02h1.8a3.1,3.1,0,0,0,1.725-.457,2.908,2.908,0,0,0,1.073-1.26A4.293,4.293,0,0,0,72.06-5.34ZM81.99,0V-10.65h4.56a2.844,2.844,0,0,1,1.29.293,3.382,3.382,0,0,1,1.02.78,3.642,3.642,0,0,1,.675,1.1,3.342,3.342,0,0,1,.24,1.237A3.563,3.563,0,0,1,89.5-5.85a3.2,3.2,0,0,1-.78,1.125,2.749,2.749,0,0,1-1.178.645L90.12,0H88.59L86.16-3.825H83.34V0Zm1.35-5.025h3.225a1.574,1.574,0,0,0,.967-.307,2.065,2.065,0,0,0,.645-.818,2.608,2.608,0,0,0,.232-1.095,2.292,2.292,0,0,0-.27-1.1,2.246,2.246,0,0,0-.705-.8,1.654,1.654,0,0,0-.96-.3H83.34ZM100.3-1.2V0h-7.23V-10.65h7.1v1.2H94.425V-6h5v1.125h-5V-1.2ZM103.38,0V-10.65h4.44a2.844,2.844,0,0,1,1.29.293,3.382,3.382,0,0,1,1.02.78,3.642,3.642,0,0,1,.675,1.1,3.342,3.342,0,0,1,.24,1.237,3.687,3.687,0,0,1-.39,1.657,3.305,3.305,0,0,1-1.1,1.275,2.829,2.829,0,0,1-1.65.488h-3.18V0Zm1.35-5.025h3.105a1.6,1.6,0,0,0,.967-.3,2.006,2.006,0,0,0,.645-.81,2.644,2.644,0,0,0,.232-1.11,2.354,2.354,0,0,0-.27-1.133,2.117,2.117,0,0,0-.705-.787,1.715,1.715,0,0,0-.96-.285H104.73Zm13.545,5.1a4.56,4.56,0,0,1-2.04-.45A4.969,4.969,0,0,1,114.652-1.6a5.655,5.655,0,0,1-1.028-1.74,5.656,5.656,0,0,1-.36-1.988,5.478,5.478,0,0,1,.382-2.033,5.666,5.666,0,0,1,1.065-1.725,5.147,5.147,0,0,1,1.6-1.2,4.521,4.521,0,0,1,2-.443,4.437,4.437,0,0,1,2.04.465,5.024,5.024,0,0,1,1.575,1.245,5.858,5.858,0,0,1,1.02,1.74,5.554,5.554,0,0,1,.36,1.965,5.575,5.575,0,0,1-.375,2.032,5.55,5.55,0,0,1-1.058,1.725,5.048,5.048,0,0,1-1.6,1.193A4.586,4.586,0,0,1,118.275.075Zm-3.645-5.4a4.754,4.754,0,0,0,.263,1.567,4.331,4.331,0,0,0,.743,1.343,3.594,3.594,0,0,0,1.155.93,3.247,3.247,0,0,0,1.5.345,3.2,3.2,0,0,0,1.53-.36,3.6,3.6,0,0,0,1.147-.96,4.382,4.382,0,0,0,.72-1.35,4.807,4.807,0,0,0,.248-1.515,4.688,4.688,0,0,0-.263-1.56,4.361,4.361,0,0,0-.75-1.342,3.568,3.568,0,0,0-1.155-.93,3.227,3.227,0,0,0-1.478-.337,3.256,3.256,0,0,0-1.53.352,3.517,3.517,0,0,0-1.147.953,4.531,4.531,0,0,0-.728,1.343A4.656,4.656,0,0,0,114.63-5.325Zm18.03-3.09a2.221,2.221,0,0,0-.48-.4,4.27,4.27,0,0,0-.675-.353,4.745,4.745,0,0,0-.818-.255,4.276,4.276,0,0,0-.923-.1,2.908,2.908,0,0,0-1.815.464,1.533,1.533,0,0,0-.585,1.271,1.281,1.281,0,0,0,.3.9,2.156,2.156,0,0,0,.923.538q.622.209,1.582.434a10.727,10.727,0,0,1,1.92.583,2.971,2.971,0,0,1,1.245.92,2.48,2.48,0,0,1,.435,1.533,2.825,2.825,0,0,1-.292,1.323,2.56,2.56,0,0,1-.818.927,3.627,3.627,0,0,1-1.23.538,6.449,6.449,0,0,1-1.53.172A7.239,7.239,0,0,1,128.317-.1a6.824,6.824,0,0,1-1.463-.5,6.276,6.276,0,0,1-1.29-.825l.645-1.14a3.354,3.354,0,0,0,.622.5,5.888,5.888,0,0,0,.87.457,5.952,5.952,0,0,0,1.058.337,5.343,5.343,0,0,0,1.17.128,3.231,3.231,0,0,0,1.77-.411,1.344,1.344,0,0,0,.63-1.2,1.307,1.307,0,0,0-.352-.957,2.669,2.669,0,0,0-1.042-.6q-.69-.239-1.68-.479a11.583,11.583,0,0,1-1.815-.591,2.552,2.552,0,0,1-1.1-.845,2.319,2.319,0,0,1-.368-1.361,2.912,2.912,0,0,1,.5-1.72,3.042,3.042,0,0,1,1.365-1.062,5.11,5.11,0,0,1,1.965-.359,5.721,5.721,0,0,1,1.343.15,5.438,5.438,0,0,1,1.162.42,5.108,5.108,0,0,1,.99.645Z" transform="translate(207 98.42)"/>
		</g>

		<g class="fade-down d-5 small">
			<text id="as_of_date_" data-name="as of {{date}}" transform="translate(1140 99.42)" font-size="12" font-family="SegoeUI, Segoe UI" letter-spacing="0.082em" text-anchor="end">
				<tspan font-weight="400">as of </tspan>
				<tspan font-weight="700">{{date}}</tspan>
			</text>
		</g>
	</g>
</svg>
